<svg width="132" height="133" viewBox="0 0 132 133" fill="none" xmlns="http://www.w3.org/2000/svg">
<path d="M83.0821 130.251C97.1159 126.491 109.517 118.205 118.361 106.678C127.206 95.1515 132 81.0286 132 66.4998C132 51.9709 127.206 37.848 118.361 26.3215C109.517 14.795 97.1159 6.509 83.0821 2.74865L79.1031 17.5984C89.8679 20.4829 99.3802 26.8388 106.165 35.6804C112.949 44.522 116.626 55.3552 116.626 66.4998C116.626 77.6444 112.949 88.4775 106.165 97.3191C99.3802 106.161 89.8679 112.517 79.1031 115.401L83.0821 130.251Z" fill="url(#paint0_linear_35_1994)"/>
<path d="M48.918 2.74913C34.8842 6.50948 22.4833 14.7955 13.6387 26.322C4.79408 37.8485 7.04006e-06 51.9714 5.7699e-06 66.5002C4.49975e-06 81.0291 4.79407 95.152 13.6387 106.678C22.4833 118.205 34.8841 126.491 48.9179 130.251L52.8969 115.402C42.1321 112.517 32.6198 106.161 25.8354 97.3196C19.051 88.478 15.3736 77.6448 15.3736 66.5002C15.3736 55.3556 19.051 44.5225 25.8354 35.6808C32.6198 26.8392 42.1321 20.4833 52.8969 17.5989L48.918 2.74913Z" fill="url(#paint1_linear_35_1994)"/>
<defs>
<linearGradient id="paint0_linear_35_1994" x1="132" y1="66.4998" x2="93.2381" y2="63.3569" gradientUnits="userSpaceOnUse">
<stop stop-color="#FF4444"/>
<stop offset="1" stop-color="#FF4444" stop-opacity="0"/>
</linearGradient>
<linearGradient id="paint1_linear_35_1994" x1="-1.5596e-06" y1="66.5002" x2="38" y2="67.0002" gradientUnits="userSpaceOnUse">
<stop stop-color="#FF4444"/>
<stop offset="1" stop-color="#FF4444" stop-opacity="0"/>
</linearGradient>
</defs>
</svg>
