<svg width="132" height="133" viewBox="0 0 132 133" fill="none" xmlns="http://www.w3.org/2000/svg">
<path d="M83.0823 130.251C97.1161 126.49 109.517 118.204 118.362 106.678C127.206 95.1513 132 81.0284 132 66.4995C132 51.9707 127.206 37.8478 118.362 26.3213C109.517 14.7948 97.1161 6.50878 83.0823 2.74844L79.1033 17.5982C89.8682 20.4826 99.3805 26.8385 106.165 35.6802C112.949 44.5218 116.627 55.3549 116.627 66.4995C116.627 77.6441 112.949 88.4773 106.165 97.3189C99.3805 106.161 89.8682 112.516 79.1033 115.401L83.0823 130.251Z" fill="url(#paint0_linear_34_1992)"/>
<path d="M48.918 2.74889C34.8842 6.50923 22.4833 14.7952 13.6387 26.3217C4.79408 37.8483 7.04006e-06 51.9711 5.7699e-06 66.5C4.49975e-06 81.0288 4.79407 95.1517 13.6387 106.678C22.4833 118.205 34.8841 126.491 48.9179 130.251L52.8969 115.401C42.1321 112.517 32.6198 106.161 25.8354 97.3194C19.051 88.4778 15.3736 77.6446 15.3736 66.5C15.3736 55.3554 19.051 44.5222 25.8354 35.6806C32.6198 26.839 42.1321 20.4831 52.8969 17.5987L48.918 2.74889Z" fill="url(#paint1_linear_34_1992)"/>
<defs>
<linearGradient id="paint0_linear_34_1992" x1="132" y1="66.4995" x2="93.2383" y2="63.3567" gradientUnits="userSpaceOnUse">
<stop stop-color="#E2FF31"/>
<stop offset="1" stop-color="#E2FF31" stop-opacity="0"/>
</linearGradient>
<linearGradient id="paint1_linear_34_1992" x1="5.82951e-06" y1="66.5" x2="42.5003" y2="67" gradientUnits="userSpaceOnUse">
<stop stop-color="#E2FF31"/>
<stop offset="1" stop-color="#E2FF31" stop-opacity="0"/>
</linearGradient>
</defs>
</svg>
