<svg width="56" height="56" viewBox="0 0 56 56" fill="none" xmlns="http://www.w3.org/2000/svg">
<path d="M18.8214 7.12744C18.7015 7.12744 18.5908 7.12744 18.4709 7.13636C16.9211 7.21304 15.1775 7.81758 13.5815 8.7877C11.0151 10.341 8.9302 12.7957 8.54367 14.8206C7.20602 21.8379 9.40345 27.8566 12.6784 33.5454C17.0133 33.8485 21.0632 33.4384 24.947 32.5467C24.6518 31.2627 24.4211 29.524 24.6056 27.9547C24.6979 27.17 24.8824 26.4211 25.2975 25.7791C25.7034 25.146 26.4045 24.6288 27.2717 24.5307C27.8068 24.4683 28.3141 24.5575 28.7846 24.7358C28.9876 24.0403 29.1813 23.327 29.3381 22.6315C29.5964 21.4902 29.7994 19.8496 29.6518 18.5745C29.578 17.9414 29.4119 17.4064 29.1998 17.0765C28.9876 16.7466 28.8031 16.6129 28.4433 16.5683C27.9544 16.5148 27.4193 16.7466 26.8197 17.2816C26.2293 17.8255 25.6296 18.628 25.1222 19.4751C24.1259 21.1514 23.4894 22.899 23.4894 22.899L21.9119 22.4532C21.9119 22.4532 22.7698 19.163 23.0373 15.6231C23.1665 13.8425 23.148 12.0075 22.8252 10.5389C22.5023 9.07036 21.9026 8.04674 21.0078 7.59734C20.362 7.27724 19.624 7.12833 18.8214 7.12744ZM37.1334 16.6307C36.3308 16.6307 35.5836 16.7823 34.9378 17.1033C34.0338 17.558 33.4341 18.5834 33.1112 20.0546C32.7884 21.5348 32.7699 23.3716 32.8991 25.1549C33.1666 28.7215 34.0338 32.0206 34.0338 32.0206L32.447 32.4754C32.447 32.4754 31.8105 30.7188 30.8049 29.0336C30.2976 28.1865 29.6979 27.3751 29.0983 26.8312C28.4987 26.2962 27.9636 26.0644 27.4747 26.1179C27.1056 26.1625 26.9211 26.2962 26.709 26.6261C26.4968 26.956 26.3307 27.491 26.2569 28.133C26.1093 29.4081 26.3123 31.0577 26.5706 32.2079C27.5392 36.4611 29.6241 41.0531 30.03 41.9269C34.2183 42.988 38.6002 43.4962 43.3051 43.1663C46.5985 37.4508 48.794 31.4054 47.4564 24.3613C47.0689 22.3284 44.9748 19.8674 42.401 18.307C40.7958 17.3262 39.043 16.7199 37.484 16.6396C37.364 16.6307 37.2533 16.6307 37.1334 16.6307ZM25.3436 34.1071C24.8363 34.223 24.3381 34.3211 23.8307 34.4281L24.6056 38.4405C25.2791 38.3335 25.9617 38.2087 26.6352 38.075C26.1831 36.8445 25.7219 35.4803 25.3436 34.1071ZM22.2071 34.7134C21.3953 34.8472 20.5742 34.9542 19.744 35.0344L20.4451 38.9755C21.2938 38.8953 22.1425 38.7972 22.9728 38.6813L22.2071 34.7134ZM12.8371 35.1682L12.8712 39.3144C13.4764 39.3144 14.0705 39.3055 14.6701 39.2876L14.4395 35.2395C13.9044 35.2217 13.374 35.2038 12.8371 35.1682ZM18.0742 35.1682C17.4284 35.2128 16.7642 35.2306 16.0908 35.2484L16.3214 39.2341C17.1609 39.2074 17.9727 39.1628 18.7938 39.1093L18.0742 35.1682ZM30.0024 43.5854L28.9691 47.5622C29.7533 47.7227 30.5282 47.8653 31.2939 47.9902L32.0596 44.0401C31.3677 43.9064 30.685 43.7548 30.0024 43.5854ZM33.6832 44.3344L32.9267 48.2309C33.7662 48.3468 34.6149 48.4449 35.4544 48.5252L36.1463 44.6554C35.3161 44.5662 34.495 44.4592 33.6832 44.3344ZM37.8069 44.798L37.115 48.6589C37.9268 48.7213 38.7478 48.7659 39.5781 48.7927L39.7995 44.8694C39.1353 44.8605 38.4711 44.8337 37.8069 44.798ZM43.0744 44.798C42.5302 44.8337 41.9951 44.8605 41.46 44.8694L41.2386 48.8461C41.829 48.864 42.4287 48.8729 43.0375 48.8729L43.0744 44.798Z" fill="white"/>
</svg>
