<svg width="80" height="80" viewBox="0 0 80 80" fill="none" xmlns="http://www.w3.org/2000/svg">
<path d="M30.815 41.7052C30.845 41.7302 30.885 41.7402 30.915 41.7652L50.2 59.2202C51.285 60.1952 53.045 60.1952 54.13 59.2202C54.14 59.2102 54.145 59.2002 54.15 59.1902C54.4127 58.9733 54.6249 58.7016 54.7717 58.3942C54.9185 58.0867 54.9964 57.7509 55 57.4102V22.4952C54.9944 22.1483 54.9127 21.8068 54.7606 21.4949C54.6086 21.183 54.3899 20.9083 54.12 20.6902L54.13 20.6802C53.5841 20.2084 52.8866 19.9487 52.165 19.9487C51.4434 19.9487 50.7459 20.2084 50.2 20.6802L30.815 38.1752C30.5597 38.393 30.3547 38.6636 30.2141 38.9683C30.0735 39.2731 30.0007 39.6046 30.0007 39.9402C30.0007 40.2758 30.0735 40.6074 30.2141 40.9121C30.3547 41.2168 30.5597 41.4874 30.815 41.7052V41.7052Z" fill="white"/>
</svg>
