<svg width="56" height="56" viewBox="0 0 56 56" fill="none" xmlns="http://www.w3.org/2000/svg">
<path d="M22.4341 39.1321C22.4341 39.5011 22.5807 39.8551 22.8416 40.116C23.1026 40.377 23.4565 40.5236 23.8256 40.5236H32.1747C32.5437 40.5236 32.8977 40.377 33.1586 40.116C33.4196 39.8551 33.5662 39.5011 33.5662 39.1321V34.9575H22.4341V39.1321Z" fill="white"/>
<path d="M33.5662 21.0425H22.4341V23.8255H33.5662V21.0425Z" fill="white"/>
<path d="M36.5694 12.6935H19.4309C18.3818 12.6898 17.3697 13.0816 16.5963 13.7907C15.823 14.4999 15.345 15.4744 15.2575 16.5202L13.1987 41.3309C13.1177 42.2925 13.2375 43.2604 13.5506 44.1732C13.8636 45.086 14.3631 45.9236 15.0173 46.6329C15.6714 47.3422 16.4659 47.9077 17.3503 48.2933C18.2346 48.6789 19.1895 48.8763 20.1543 48.8729H35.8739C36.8386 48.8763 37.7935 48.6789 38.6779 48.2933C39.5623 47.9077 40.3568 47.3422 41.0109 46.6329C41.6651 45.9236 42.1645 45.086 42.4776 44.1732C42.7907 43.2604 42.9105 42.2925 42.8295 41.3309L40.7289 16.5202C40.6417 15.4768 40.1656 14.5042 39.3952 13.7955C38.6248 13.0867 37.6162 12.6933 36.5694 12.6935ZM36.2217 39.1323C36.2217 40.2394 35.782 41.3012 34.9993 42.0841C34.2167 42.867 33.1552 43.3068 32.0483 43.3068H23.7016C22.5948 43.3068 21.5333 42.867 20.7506 42.0841C19.968 41.3012 19.5283 40.2394 19.5283 39.1323V33.5662C19.5283 33.1972 19.6748 32.8432 19.9357 32.5823C20.1966 32.3213 20.5504 32.1747 20.9194 32.1747H34.8305C35.1995 32.1747 35.5533 32.3213 35.8142 32.5823C36.0751 32.8432 36.2217 33.1972 36.2217 33.5662V39.1323ZM36.3469 19.6511V26.6086C36.3469 26.9777 36.2003 27.3316 35.9394 27.5926C35.6785 27.8535 35.3247 28.0001 34.9557 28.0001C34.5868 28.0001 34.233 27.8535 33.9721 27.5926C33.7112 27.3316 33.5646 26.9777 33.5646 26.6086H22.4357C22.4357 26.9777 22.2891 27.3316 22.0283 27.5926C21.7674 27.8535 21.4135 28.0001 21.0446 28.0001C20.6756 28.0001 20.3218 27.8535 20.0609 27.5926C19.8 27.3316 19.6535 26.9777 19.6535 26.6086V18.2596C19.6535 17.8905 19.8 17.5366 20.0609 17.2756C20.3218 17.0146 20.6756 16.868 21.0446 16.868C21.4135 16.868 21.7674 17.0146 22.0283 17.2756C22.2891 17.5366 22.4357 17.8905 22.4357 18.2596H33.5646C33.5646 17.8905 33.7112 17.5366 33.9721 17.2756C34.233 17.0146 34.5868 16.868 34.9557 16.868C35.3247 16.868 35.6785 17.0146 35.9394 17.2756C36.2003 17.5366 36.3469 17.8905 36.3469 18.2596V19.6511ZM11.6267 26.6921C10.7479 26.8637 9.94745 27.3134 9.34373 27.9749C8.74002 28.6364 8.36503 29.4746 8.27415 30.3657L7.13343 41.7761C7.11538 41.9701 7.13825 42.1657 7.20055 42.3503C7.26286 42.5349 7.36321 42.7043 7.49512 42.8476C7.62518 42.9918 7.78396 43.1071 7.96126 43.1862C8.13855 43.2652 8.33042 43.3063 8.52455 43.3068H10.5138C10.4031 42.5794 10.3751 41.8419 10.4304 41.1082L11.6267 26.6921ZM47.7262 30.3657C47.6353 29.4746 47.2603 28.6364 46.6566 27.9749C46.0529 27.3134 45.2525 26.8637 44.3736 26.6921L45.57 41.1082C45.6252 41.8419 45.5972 42.5794 45.4865 43.3068H47.4758C47.6699 43.3063 47.8618 43.2652 48.0391 43.1862C48.2164 43.1071 48.3752 42.9918 48.5052 42.8476C48.6371 42.7043 48.7375 42.5349 48.7998 42.3503C48.8621 42.1657 48.885 41.9701 48.8669 41.7761L47.7262 30.3657ZM28.0002 7.12744C27.1391 7.12986 26.2999 7.39862 25.5976 7.89686C24.8953 8.39511 24.3642 9.09845 24.0772 9.91047H31.9231C31.6361 9.09845 31.105 8.39511 30.4027 7.89686C29.7004 7.39862 28.8612 7.12986 28.0002 7.12744Z" fill="white"/>
</svg>
