<svg width="56" height="56" viewBox="0 0 56 56" fill="none" xmlns="http://www.w3.org/2000/svg">
<path d="M16.9286 33.9477C13.9036 34.4548 10.213 35.0252 7.12744 34.8351V31.4122C7.12744 23.9326 11.8465 17.5939 18.2597 15.6289C15.7186 19.4321 16.0816 27.4188 16.9286 33.9477Z" fill="white"/>
<path d="M20.5159 15.2329C21.4186 14.2544 22.1923 14.2544 23.3529 14.2544C24.449 14.2544 25.4806 14.3849 26.5122 14.5806C31.09 17.8422 34.1849 23.7784 34.9586 30.5626C30.1873 31.0844 24.6424 32.4543 18.904 33.498C17.679 24.3002 18.1948 17.6465 20.5159 15.2329Z" fill="white"/>
<path d="M36.8295 29.7866C36.175 24.1865 33.8188 19.1526 30.3499 15.6289C35.9132 18.0829 39.8402 23.4314 40.102 29.7237C38.9893 29.6608 37.9421 29.6608 36.8295 29.7866ZM48.8723 36.9598C44.2908 36.9598 38.5312 41.6161 30.8735 41.742C26.2266 41.8678 21.2523 38.3441 16.8672 34.5688C25.6375 33.1845 34.9969 30.6675 40.5601 31.1709C43.1781 33.3732 46.3852 35.1351 48.8723 36.9598Z" fill="white"/>
</svg>
