<svg width="56" height="56" viewBox="0 0 56 56" fill="none" xmlns="http://www.w3.org/2000/svg">
<path d="M35.0008 45.7572L31.7616 48.8729L30.8008 45.9323L31.9436 44.833L35.0008 45.7572Z" fill="white"/>
<path d="M35.0008 38.5225L31.9436 39.4466L30.8008 38.3474L31.7616 35.4067L35.0008 38.5225Z" fill="white"/>
<path d="M24.2392 35.4067L25.2 38.3474L24.0572 39.4466L21 38.5225L24.2392 35.4067Z" fill="white"/>
<path d="M25.2 45.9323L24.2392 48.8729L21 45.7572L24.0572 44.833L25.2 45.9323Z" fill="white"/>
<path d="M44.4581 7.22299C44.2979 7.13153 44.106 7.10435 43.9246 7.14742C43.7433 7.1905 43.5874 7.30029 43.4912 7.45267L28.0002 31.9939L12.5092 7.45267C12.413 7.30029 12.257 7.19051 12.0757 7.14748C11.8943 7.10444 11.7024 7.13168 11.5421 7.2232C11.3819 7.31471 11.2664 7.46301 11.2212 7.63547C11.1759 7.80793 11.2046 7.99042 11.3008 8.14279L26.796 32.6912H25.7979C25.7054 32.6911 25.6138 32.7084 25.5283 32.742C25.4429 32.7755 25.3652 32.8248 25.2997 32.887C25.2343 32.9491 25.1823 33.0229 25.1469 33.1042C25.1115 33.1854 25.0932 33.2725 25.0932 33.3605V34.9528H24.5662C24.5245 34.9568 24.4832 34.9641 24.4428 34.9746C24.4366 34.9756 24.4303 34.9818 24.4241 34.983C24.4147 34.9848 24.4053 34.9903 24.396 34.9925C24.3822 34.9958 24.3684 35.0001 24.3548 35.0042C24.3539 35.0042 24.3529 35.0053 24.3519 35.0056C24.3439 35.0079 24.3364 35.0115 24.3286 35.014C24.3154 35.0184 24.3021 35.0228 24.2893 35.028C24.2764 35.0332 24.2667 35.0381 24.2555 35.0433C24.2461 35.0476 24.2365 35.0517 24.2274 35.0564C24.2144 35.0631 24.2021 35.0705 24.1897 35.0779C24.1828 35.082 24.1756 35.0858 24.1688 35.0903C24.1556 35.0987 24.1433 35.1078 24.1309 35.1169C24.1252 35.1212 24.1192 35.1253 24.1133 35.1296C24.101 35.1393 24.0895 35.1496 24.078 35.16C24.0736 35.1639 24.0692 35.1674 24.0646 35.1715L24.0576 35.1782L24.0563 35.1794L20.9067 38.1743L20.9059 38.175L20.8985 38.182C20.894 38.1863 20.8897 38.1911 20.8857 38.1956C20.875 38.2061 20.8645 38.2168 20.8546 38.2281C20.8497 38.2338 20.8451 38.2399 20.8403 38.2458C20.8311 38.2572 20.8218 38.2686 20.8133 38.2806C20.8083 38.2874 20.8045 38.2946 20.7995 38.3016C20.792 38.3131 20.7844 38.3244 20.7776 38.3364C20.7725 38.3454 20.7681 38.3547 20.7634 38.3639C20.7587 38.3731 20.7526 38.3845 20.7478 38.3953C20.7424 38.4076 20.7379 38.4205 20.7332 38.4328C20.7305 38.4402 20.7271 38.4474 20.7244 38.455L20.7236 38.4577C20.7194 38.4709 20.7161 38.4843 20.7127 38.4977C20.7105 38.5061 20.7077 38.5144 20.7059 38.5234C20.7044 38.5306 20.7019 38.5379 20.7006 38.5451C20.6933 38.5823 20.6892 38.6201 20.6885 38.6579V45.1907C20.6892 45.2285 20.6933 45.2663 20.7006 45.3035C20.7019 45.3107 20.7035 45.318 20.705 45.3252C20.7069 45.3336 20.71 45.3419 20.7122 45.3509C20.7157 45.3643 20.7192 45.3777 20.7234 45.3908L20.7243 45.3936C20.7249 45.3956 20.7262 45.3974 20.7268 45.3994C20.737 45.429 20.7493 45.4578 20.7638 45.4858C20.7663 45.4908 20.7686 45.4959 20.7713 45.5008C20.7861 45.5278 20.8028 45.5538 20.8214 45.5786C20.8261 45.5851 20.8311 45.5913 20.8361 45.5976C20.8552 45.6219 20.876 45.645 20.8984 45.6666L20.9003 45.6684L24.0558 48.6688L24.0571 48.67L24.064 48.6767C24.0683 48.6808 24.0728 48.6843 24.0775 48.6883C24.089 48.6987 24.1005 48.709 24.1127 48.7187C24.1184 48.7231 24.1244 48.7271 24.1304 48.7313C24.1428 48.7405 24.1551 48.7496 24.1682 48.758C24.1751 48.7624 24.1823 48.7663 24.1892 48.7704C24.2015 48.7777 24.2139 48.7851 24.2268 48.7917C24.2356 48.7965 24.2456 48.8001 24.255 48.8049C24.2662 48.8101 24.2772 48.8154 24.2888 48.82C24.3003 48.8246 24.3152 48.8295 24.328 48.8339C24.3359 48.8365 24.3434 48.8397 24.3514 48.8423L24.3537 48.8428C24.3839 48.8516 24.4147 48.8583 24.4459 48.8632C24.454 48.8645 24.462 48.8656 24.4701 48.8666C24.4988 48.8704 24.5277 48.8725 24.5566 48.8729C24.5588 48.8729 24.5608 48.8654 24.5628 48.8654C24.5648 48.8654 24.5643 48.857 24.565 48.857H31.4349C31.4356 48.857 31.4363 48.8654 31.4371 48.8654C31.4379 48.8654 31.4412 48.8689 31.4433 48.8689C31.4722 48.8691 31.5011 48.8677 31.5298 48.8646C31.5379 48.8636 31.5459 48.8635 31.5541 48.8622C31.5852 48.8575 31.616 48.8509 31.6462 48.8423C31.647 48.8423 31.6478 48.8423 31.6485 48.8423C31.6566 48.8399 31.664 48.8369 31.6719 48.8339C31.6851 48.8295 31.6983 48.8256 31.7112 48.8202C31.7227 48.8155 31.7337 48.8102 31.7449 48.805C31.7543 48.8007 31.7639 48.7967 31.7731 48.7919C31.786 48.7853 31.7984 48.7779 31.8107 48.7705C31.8177 48.7663 31.8248 48.7622 31.8317 48.7581C31.8448 48.7498 31.8571 48.7406 31.8696 48.7315C31.8753 48.7272 31.8813 48.7231 31.8872 48.7189C31.8994 48.7091 31.911 48.6988 31.9224 48.6884C31.9268 48.6845 31.9312 48.681 31.9359 48.6769L31.9429 48.6702L31.9442 48.669L35.0995 45.6687L35.1017 45.6666C35.1239 45.645 35.1445 45.622 35.1634 45.5978C35.1685 45.5914 35.1736 45.585 35.1785 45.5785C35.1969 45.5537 35.2135 45.5279 35.2283 45.501C35.231 45.4959 35.2333 45.4906 35.236 45.4855C35.2503 45.4576 35.2626 45.4289 35.2728 45.3994C35.2735 45.3974 35.2746 45.3956 35.2753 45.3936L35.2761 45.3908C35.2803 45.3776 35.2836 45.364 35.2871 45.3506C35.2892 45.3422 35.2919 45.3338 35.2937 45.3254C35.2954 45.3171 35.2978 45.3105 35.2991 45.303C35.3064 45.266 35.3104 45.2285 35.3112 45.1909V38.6582C35.3104 38.6206 35.3064 38.5831 35.2991 38.5461C35.2978 38.5386 35.2961 38.531 35.2946 38.5236C35.293 38.5161 35.2896 38.5068 35.2875 38.4984C35.2841 38.485 35.2806 38.4714 35.2762 38.4582L35.2754 38.4554C35.2729 38.4478 35.2695 38.4407 35.2665 38.4332C35.2619 38.4206 35.2577 38.4081 35.2519 38.3958C35.2472 38.3849 35.2415 38.3746 35.2362 38.364C35.2316 38.355 35.2273 38.3457 35.2221 38.3369C35.2153 38.3246 35.2075 38.3131 35.1999 38.3014C35.1955 38.2947 35.1911 38.2878 35.1866 38.2812C35.1778 38.2686 35.1681 38.2567 35.1584 38.2449C35.1541 38.2395 35.1496 38.2341 35.1454 38.2289C35.1348 38.2168 35.1236 38.2053 35.1122 38.194C35.1084 38.1902 35.1051 38.1861 35.1012 38.1824L35.095 38.1765L35.0925 38.1741L31.9435 35.1798L31.9421 35.1786L31.9352 35.1719C31.9309 35.1678 31.9264 35.1643 31.9217 35.1604C31.9103 35.15 31.8987 35.1397 31.8865 35.13C31.8808 35.1255 31.8748 35.1216 31.8689 35.1173C31.8564 35.1082 31.8441 35.0991 31.831 35.0907C31.8241 35.0863 31.817 35.0823 31.81 35.0783C31.7977 35.0709 31.7853 35.0636 31.7724 35.0569C31.7636 35.0522 31.7536 35.0481 31.7442 35.0438C31.733 35.0386 31.722 35.0332 31.7105 35.0286C31.6976 35.0234 31.684 35.0192 31.6712 35.0147C31.6633 35.0121 31.6558 35.0089 31.6478 35.0063L31.6449 35.0057C31.6309 35.0015 31.6166 34.9984 31.6022 34.9951C31.5934 34.993 31.5846 34.9905 31.5758 34.9888C31.5688 34.9875 31.5619 34.9755 31.5549 34.9744C31.5149 34.9641 31.4741 34.9569 31.4328 34.9529H30.9072V33.3605C30.9072 33.2725 30.889 33.1854 30.8535 33.1042C30.8181 33.0229 30.7662 32.9491 30.7007 32.887C30.6353 32.8248 30.5576 32.7755 30.4721 32.742C30.3866 32.7084 30.295 32.6911 30.2025 32.6912H29.2044L44.6997 8.14279C44.7959 7.99034 44.8245 7.80781 44.7792 7.63533C44.7339 7.46285 44.6184 7.31453 44.4581 7.22299ZM25.7979 36.293H30.4774L29.9813 37.8008H26.0191L25.5231 36.293H25.7979ZM33.2832 38.3482L31.812 38.7879L31.2992 38.3002L31.7616 36.9013L33.2832 38.3482ZM33.9024 44.2799L32.3167 43.8081V40.0408L33.9024 39.569V44.2799ZM31.7617 46.9478L31.2993 45.5489L31.8122 45.0612L33.2833 45.5009L31.7617 46.9478ZM22.7173 45.5007L24.1884 45.0611L24.7013 45.5487L24.2389 46.9476L22.7173 45.5007ZM22.0981 39.569L23.6837 40.0408V43.8081L22.0981 44.2799V39.569ZM24.2392 36.9011L24.7015 38.2999L24.1887 38.7876L22.7176 38.3479L24.2392 36.9011ZM30.2067 39.141L30.9072 39.8265V44.0224L30.2067 44.6694H25.7938L25.0932 44.0224V39.8265L25.7938 39.141H30.2067ZM26.0191 46.0096H29.9813L30.4774 47.5174H25.5231L26.0191 46.0096ZM29.4978 34.9528H26.5027V34.0314H29.4978V34.9528Z" fill="white"/>
</svg>
