<svg width="16" height="16" viewBox="0 0 16 16" fill="none" xmlns="http://www.w3.org/2000/svg">
<path d="M9.2529 7.99908L13.072 4.18889C13.2392 4.02164 13.3332 3.79481 13.3332 3.55829C13.3332 3.32178 13.2392 3.09495 13.072 2.9277C12.9047 2.76046 12.6779 2.6665 12.4414 2.6665C12.2049 2.6665 11.978 2.76046 11.8108 2.9277L8.0006 6.74678L4.1904 2.9277C4.02316 2.76046 3.79633 2.6665 3.55981 2.6665C3.32329 2.6665 3.09646 2.76046 2.92922 2.9277C2.76198 3.09495 2.66802 3.32178 2.66802 3.55829C2.66802 3.79481 2.76198 4.02164 2.92922 4.18889L6.74829 7.99908L2.92922 11.8093C2.84597 11.8918 2.7799 11.9901 2.73481 12.0983C2.68972 12.2065 2.6665 12.3226 2.6665 12.4399C2.6665 12.5571 2.68972 12.6732 2.73481 12.7814C2.7799 12.8897 2.84597 12.9879 2.92922 13.0705C3.01178 13.1537 3.11002 13.2198 3.21825 13.2649C3.32648 13.31 3.44256 13.3332 3.55981 13.3332C3.67706 13.3332 3.79315 13.31 3.90138 13.2649C4.00961 13.2198 4.10784 13.1537 4.1904 13.0705L8.0006 9.25138L11.8108 13.0705C11.8934 13.1537 11.9916 13.2198 12.0998 13.2649C12.208 13.31 12.3241 13.3332 12.4414 13.3332C12.5586 13.3332 12.6747 13.31 12.7829 13.2649C12.8912 13.2198 12.9894 13.1537 13.072 13.0705C13.1552 12.9879 13.2213 12.8897 13.2664 12.7814C13.3115 12.6732 13.3347 12.5571 13.3347 12.4399C13.3347 12.3226 13.3115 12.2065 13.2664 12.0983C13.2213 11.9901 13.1552 11.8918 13.072 11.8093L9.2529 7.99908Z" fill="white"/>
</svg>
