<svg width="56" height="56" viewBox="0 0 56 56" fill="none" xmlns="http://www.w3.org/2000/svg">
<path d="M47.5124 27.154C47.3074 25.0867 46.357 23.1134 44.8195 21.6663C43.2261 20.1721 41.1574 19.3452 38.977 19.3452C35.1099 19.3452 31.774 21.92 30.7304 25.6411C30.0781 24.9834 29.0065 24.5417 28.0002 24.5417C26.9938 24.5417 25.9222 24.9834 25.2699 25.6411C24.2263 21.92 20.8904 19.3452 17.0234 19.3452C14.8522 19.3452 12.7743 20.1627 11.1809 21.6569C9.64335 23.1134 8.6929 25.0867 8.4879 27.154H7.12744V28.8455H8.4879C8.6929 30.9128 9.64335 32.8861 11.1809 34.3333C12.7743 35.8274 14.8429 36.6543 17.0234 36.6543C21.757 36.6543 25.6054 32.7828 25.6054 28.0092V27.9998C25.6054 27.0695 26.677 25.97 28.0002 25.97C29.3234 25.97 30.3949 27.0695 30.3949 27.9998V28.0092C30.3949 32.7828 34.2434 36.6543 38.977 36.6543C41.1481 36.6543 43.2261 35.8368 44.8195 34.3333C46.357 32.8861 47.3074 30.9034 47.5124 28.8361H48.8729V27.1446H47.5124V27.154Z" fill="white"/>
</svg>
