<svg width="56" height="56" viewBox="0 0 56 56" fill="none" xmlns="http://www.w3.org/2000/svg">
<path d="M40.5548 38.0024C40.0351 44.0871 34.6109 48.8729 27.9952 48.8729C21.3795 48.8729 15.9553 44.0871 15.4355 38.0024C15.701 38.4719 15.9789 38.9277 16.2692 39.37C19.3918 44.114 23.5566 46.7266 27.9943 46.7266C32.4319 46.7266 36.5977 44.114 39.7204 39.3673C40.0113 38.9274 40.2895 38.4725 40.5549 38.0024H40.5548ZM42.7636 23.1823C42.7636 28.7792 41.1845 34.3882 38.4312 38.57C35.5995 42.8719 31.893 45.2401 27.9999 45.2401C24.1068 45.2401 20.3966 42.8709 17.5687 38.5701C14.8153 34.3892 13.2363 28.7793 13.2363 23.1824C13.2363 18.9085 14.4574 15.0006 16.6738 12.1817C19.2635 8.87603 23.1814 7.12744 27.9952 7.12744C32.8091 7.12744 36.7297 8.87413 39.3271 12.1799C41.5424 14.9997 42.7627 18.9066 42.7627 23.1814L42.7636 23.1823ZM26.3261 23.2752C26.4467 22.5654 20.9985 20.8187 19.4357 20.5688C17.8729 20.3188 16.8212 20.1971 16.5647 21.7116C16.5034 22.0718 16.5158 22.4403 16.6012 22.7959C16.6865 23.1515 16.8432 23.4873 17.0623 23.784C17.2814 24.0808 17.5585 24.3328 17.8779 24.5256C18.1973 24.7184 18.5527 24.8482 18.9238 24.9076C20.4846 25.1604 26.2017 24.0074 26.3252 23.278L26.3261 23.2752ZM33.2366 35.5821C33.2366 34.5601 31.4624 33.7397 27.9952 33.7397C24.5279 33.7397 22.7537 34.5647 22.7537 35.5821C22.7537 36.5995 24.5278 37.4245 27.9952 37.4245C31.4624 37.4245 33.2366 36.6023 33.2366 35.585V35.5821ZM39.4256 21.7143C39.1681 20.1989 38.1135 20.3206 36.5546 20.5716C34.9956 20.8224 29.5454 22.5682 29.6642 23.278C29.7876 24.0074 35.5018 25.1595 37.0656 24.9096C37.4367 24.8502 37.7921 24.7205 38.1115 24.5278C38.431 24.3351 38.7082 24.0832 38.9273 23.7865C39.1465 23.4898 39.3033 23.1541 39.3888 22.7985C39.4743 22.443 39.4868 22.0746 39.4256 21.7143Z" fill="white"/>
</svg>
