<svg width="24" height="24" viewBox="0 0 24 24" fill="none" xmlns="http://www.w3.org/2000/svg">
<path d="M13.908 0C13.5776 0 13.3094 0.267605 13.3094 0.598668C13.3094 0.929731 13.5776 1.19734 13.908 1.19734C16.6314 1.19734 18.8471 3.41301 18.8471 6.13635V15.9551C18.8471 19.7309 15.7753 22.8027 11.9995 22.8027C8.22369 22.8027 5.15193 19.7309 5.15193 15.9551V6.13635C5.15193 3.41301 7.3676 1.19734 10.0909 1.19734H11.4008V5.28803C11.4008 5.6191 11.669 5.8867 11.9995 5.8867C12.33 5.8867 12.5982 5.6191 12.5982 5.28803V0.598668C12.5982 0.267605 12.33 0 11.9995 0H10.0909C6.70727 0 3.95459 2.75268 3.95459 6.13635V15.9551C3.95459 20.3906 7.56336 24 11.9995 24C16.4356 24 20.0438 20.3912 20.0438 15.9551V6.13635C20.0444 2.75268 17.2917 0 13.908 0Z" fill="white"/>
<path d="M11.9995 7.25879C11.6691 7.25879 11.4009 7.52639 11.4009 7.85746V10.327C11.4009 10.658 11.6691 10.9256 11.9995 10.9256C12.33 10.9256 12.5982 10.658 12.5982 10.327V7.85746C12.5982 7.52639 12.3306 7.25879 11.9995 7.25879Z" fill="white"/>
</svg>
