<svg width="56" height="56" viewBox="0 0 56 56" fill="none" xmlns="http://www.w3.org/2000/svg">
<path d="M46.0349 35.9287C45.558 36.0153 45.0811 36.1028 44.5999 36.1602L39.1144 36.8157C35.3604 37.2642 31.5595 37.0532 27.8743 36.1914L25.8683 35.7223C23.4129 35.1482 20.9029 34.8584 18.3849 34.8584H10.969C8.84732 34.8587 7.12744 36.6282 7.12744 38.811C7.12744 40.9938 8.84732 42.7632 10.969 42.7632H36.1525C39.9504 42.7632 43.7186 42.0744 47.2839 40.7283C48.2385 40.368 48.8729 39.4331 48.8729 38.387C48.8729 36.8089 47.4818 35.6658 46.0349 35.9287Z" fill="white"/>
<path d="M44.6465 29.5275C42.7513 29.0941 40.8945 28.5182 39.1218 27.8213L36.1565 32.7068L33.8472 31.2232L36.5849 26.7127C36.03 26.4444 35.4864 26.1646 34.9567 25.8726L32.2134 30.3611L29.9087 28.8701L32.6134 24.4447C32.128 24.1183 31.6586 23.7818 31.207 23.4352L28.4736 28.0028L26.1552 26.5343L29.0989 21.6151C28.9596 21.4787 28.8198 21.3393 28.6796 21.1958L19.264 27.822L17.8336 25.6707L17.1006 26.2164C16.5451 26.6299 16.2141 27.2714 16.1925 27.9764C16.1709 28.6816 16.462 29.3432 16.9911 29.7919L19.692 32.0825C21.9722 32.1668 24.2469 32.4708 26.471 32.9909L28.4769 33.46C30.701 33.9801 32.985 34.2437 35.2657 34.2437C36.4421 34.2437 37.631 34.1729 38.7997 34.0333L44.2851 33.3778C44.6751 33.3312 45.0893 33.2558 45.5278 33.1762L45.5605 33.1703C45.8542 33.1168 46.1539 33.0898 46.4515 33.0898C46.9381 33.0898 47.4087 33.1614 47.8553 33.2921C47.9788 32.0772 47.6368 30.2111 44.6465 29.5275Z" fill="white"/>
<path d="M24.5937 16.2493L17.9673 20.9126L19.9738 23.9305L26.6002 19.2672L24.5937 16.2493Z" fill="white"/>
<path d="M22.8784 14.0622C21.8689 13.078 20.2908 12.9438 19.1296 13.82L10.6451 20.2212C9.03792 21.4338 8.08968 23.3626 8.09278 25.413L8.10354 32.737C8.96992 32.3026 9.94222 32.0583 10.9691 32.0583H15.3828L15.26 31.9542C14.0753 30.9495 13.4237 29.4678 13.4721 27.889C13.5204 26.3103 14.2616 24.874 15.5054 23.948L16.2968 23.3589L14.1839 20.1809L22.8784 14.0622Z" fill="white"/>
</svg>
