<svg width="24" height="24" viewBox="0 0 24 24" fill="none" xmlns="http://www.w3.org/2000/svg">
<path d="M23.1554 11.1279H18.8622C18.4751 9.90698 17.3138 9 15.9414 9C14.5689 9 13.4076 9.90698 13.0205 11.1279H0.844575C0.387097 11.1279 0 11.5116 0 11.9651C0 12.4186 0.387097 12.8023 0.844575 12.8023H13.0205C13.3724 14.0581 14.5689 15 15.9414 15C17.349 15 18.5103 14.0581 18.8622 12.8023H23.1554C23.6129 12.8023 24 12.4186 24 11.9651C24 11.5116 23.6129 11.1279 23.1554 11.1279ZM15.9414 13.3256C15.2023 13.3256 14.6041 12.7326 14.6041 12C14.6041 11.2674 15.2023 10.6744 15.9414 10.6744C16.6804 10.6744 17.2786 11.2674 17.2786 12C17.2786 12.7326 16.6804 13.3256 15.9414 13.3256Z" fill="white"/>
</svg>
