<svg width="56" height="56" viewBox="0 0 56 56" fill="none" xmlns="http://www.w3.org/2000/svg">
<path d="M12.9667 22.1369C12.9667 22.1369 14.013 25.2758 14.9069 26.9451C14.9069 26.9451 15.797 20.3735 12.5354 15.4088C12.5354 15.4088 11.5887 17.7715 12.9667 22.1369ZM43.6059 15.4088C43.6059 15.4088 40.3803 19.3909 41.0859 26.8644C41.9301 24.542 42.8856 22.1273 42.8856 22.1273C44.3154 17.8148 43.6059 15.4088 43.6059 15.4088ZM33.4315 8.18017C31.8166 7.48145 30.0709 7.12287 28.3068 7.12749C25.6034 7.12749 23.4787 7.88242 22.6746 8.21187C23.103 8.94184 24.8861 11.6273 27.9262 11.7407C31.0121 11.6273 32.9699 8.90053 33.4315 8.18017ZM28.6123 12.7136C28.599 13.395 28.5824 14.0763 28.5625 14.7576C29.8322 14.4031 32.8059 13.264 35.0038 10.0425L34.2562 8.81217C33.6697 9.71502 31.7363 12.2843 28.6123 12.7136ZM27.5221 14.7854C27.5446 13.8153 27.5621 13.1055 27.5719 12.7396C24.4479 12.4735 22.5877 10.0301 21.9201 8.96873L21.4185 10.1684C21.4753 10.2195 21.5203 10.282 21.5503 10.3518C21.6069 10.4959 22.98 13.7961 27.5221 14.7854Z" fill="white"/>
<path d="M27.5025 15.8235C23.1204 14.9466 21.2886 12.1227 20.7547 11.0941L13.3053 13.6566C13.2263 13.6848 13.1554 13.7312 13.0984 13.7918C13.0413 13.8525 12.9998 13.9257 12.9773 14.0053C12.9543 14.0854 12.9518 14.1698 12.97 14.2511C12.9883 14.3324 13.0266 14.408 13.0818 14.4711C13.1081 14.5009 15.7334 17.3132 16.0438 25.5119L15.1547 45.6118C15.1502 45.6834 15.1617 45.755 15.1883 45.8217C15.2149 45.8884 15.2561 45.9486 15.3089 45.998C15.425 46.1161 18.3744 48.8391 27.6703 48.8727C26.9745 43.5516 27.3239 23.8012 27.5025 15.8235ZM24.5707 26.2303H19.5484C19.4103 26.2303 19.2778 26.1764 19.1799 26.0805C19.0821 25.9845 19.0268 25.8543 19.0263 25.7184C19.0263 25.435 19.2625 25.2064 19.5484 25.2064H24.5707C24.6417 25.2021 24.7128 25.2122 24.7797 25.236C24.8466 25.2598 24.9078 25.2968 24.9596 25.3448C25.0115 25.3927 25.0527 25.4506 25.081 25.5149C25.1092 25.5791 25.1237 25.6484 25.1237 25.7184C25.1237 25.7884 25.1092 25.8576 25.081 25.9219C25.0527 25.9861 25.0115 26.044 24.9596 26.092C24.9078 26.1399 24.8466 26.1769 24.7797 26.2007C24.7128 26.2245 24.6417 26.2346 24.5707 26.2303ZM43.1109 14.4769C43.1648 14.4149 43.2031 14.3413 43.2229 14.2621C43.2428 14.1829 43.2435 14.1002 43.2251 14.0207C43.2056 13.9414 43.1673 13.8677 43.1134 13.8058C43.0595 13.7439 42.9914 13.6954 42.9147 13.6643L35.721 10.8213C33.1435 14.4509 29.7355 15.544 28.5438 15.8254C28.372 23.8147 28.0236 43.8772 28.7195 48.8439C30.5611 48.7123 37.8554 48.0505 40.7081 45.5907C40.7667 45.5406 40.813 45.4781 40.8438 45.4079C40.8745 45.3378 40.8889 45.2617 40.8857 45.1854L40.1577 25.5407C40.226 17.8117 43.0816 14.5105 43.1109 14.4769ZM36.006 26.2303H30.9847C30.8467 26.2303 30.7144 26.1764 30.6169 26.0804C30.5193 25.9843 30.4645 25.8541 30.4645 25.7184C30.4645 25.5826 30.5193 25.4524 30.6169 25.3564C30.7144 25.2604 30.8467 25.2064 30.9847 25.2064H36.006C36.1439 25.2064 36.2762 25.2604 36.3738 25.3564C36.4713 25.4524 36.5261 25.5826 36.5261 25.7184C36.5261 25.8541 36.4713 25.9843 36.3738 26.0804C36.2762 26.1764 36.1439 26.2303 36.006 26.2303Z" fill="white"/>
</svg>
