<svg width="56" height="56" viewBox="0 0 56 56" fill="none" xmlns="http://www.w3.org/2000/svg">
<path d="M17.0234 7.12744C16.618 7.12744 16.2916 7.45991 16.2916 7.8729V9.3638C16.2916 9.77679 16.618 10.1093 17.0234 10.1093H21.4112V7.12744H17.0234ZM22.1459 7.12744V10.1093H23.6094V7.12744H22.1459ZM24.3384 7.12744V10.1093H31.659V7.12744H24.3384ZM32.3879 7.12744V10.1093H33.8515V7.12744H32.3879ZM34.5875 7.12744V10.1093H38.245C38.6504 10.1093 38.9768 9.77679 38.9768 9.3638V7.8729C38.9768 7.45991 38.6504 7.12744 38.245 7.12744H34.5875ZM17.6823 10.8562C17.3181 10.8931 17.0367 11.1984 17.0234 11.571L16.7676 18.104C19.8999 17.0184 22.1469 14.2061 22.5175 10.8562H17.7523C17.729 10.855 17.7056 10.855 17.6823 10.8562H17.6823ZM23.2564 10.8562L23.2464 10.9392C22.8335 14.6714 20.2719 17.7943 16.7361 18.9004L16.2916 48.0969C16.2747 48.5193 16.6055 48.8716 17.0206 48.8729H25.073C25.4438 48.8742 25.757 48.5927 25.8019 48.2177L28.0001 26.5093L30.1997 48.2177C30.2447 48.5927 30.5578 48.8742 30.9287 48.8729H38.9797C39.3947 48.8716 39.7256 48.5193 39.7086 48.0969L39.2569 18.8975C35.7257 17.789 33.1664 14.6684 32.7538 10.9392L32.7439 10.8562L23.2564 10.8562ZM33.4784 10.8562C33.8488 14.2042 36.0972 17.0155 39.2269 18.1025L38.9768 11.571C38.9606 11.1702 38.636 10.8543 38.2422 10.8562H33.4784ZM28.3617 14.9474C28.5683 14.9465 28.7347 15.12 28.729 15.3304V21.2896C28.729 21.2896 28.7355 21.7409 28.5089 22.2025C28.2823 22.6641 27.7576 23.1547 26.9039 23.1547C26.4179 23.1508 26.4179 22.4102 26.9039 22.4063C27.5137 22.4063 27.715 22.1515 27.8543 21.8676C27.9936 21.5838 28.0001 21.2896 28.0001 21.2896V15.3304C27.9952 15.1372 28.1361 14.9722 28.3245 14.9503C28.3369 14.9487 28.3493 14.9477 28.3617 14.9474L28.3617 14.9474Z" fill="white"/>
</svg>
