<svg width="56" height="56" viewBox="0 0 56 56" fill="none" xmlns="http://www.w3.org/2000/svg">
<path d="M30.0778 12.5788C30.6283 12.8989 31.0708 13.439 31.1975 13.6032C31.2407 13.6616 31.2702 13.7288 31.2836 13.7999C31.4669 14.8952 31.7751 15.377 31.971 15.5812C33.4918 13.7008 33.4783 9.62473 33.4538 8.7095L32.6195 7.98432C32.6507 9.85562 31.1924 11.5552 30.0778 12.5788ZM25.2764 12.3204C23.8847 11.326 23.1636 9.36383 22.852 8.24939L22.0228 9.01541C22.0059 9.82312 22.0363 12.593 23.0074 14.7877C23.4558 13.9658 24.2504 12.7705 25.2764 12.3204ZM31.488 9.17212C31.7126 8.5753 31.7911 7.94848 31.618 7.32332C30.6483 7.19812 29.6717 7.1327 28.6938 7.12744C26.1639 7.12744 24.4522 7.56088 23.6686 7.81345C23.7741 8.22438 23.9591 8.82037 24.2293 9.43635C25.1489 9.19379 27.7041 8.682 31.488 9.17212ZM28.8812 12.4096C28.8939 12.4046 28.9032 12.3988 28.9192 12.3938C29.5196 11.9003 30.4535 11.0368 31.0759 10.0148C27.8367 9.6339 25.5795 10.024 24.6388 10.2507C24.9935 10.8584 25.4402 11.4135 26.0127 11.7361C26.0423 11.7519 26.4881 11.9753 26.8276 12.2821C27.0299 12.3754 27.21 12.5099 27.3561 12.6766C27.5022 12.8434 27.611 13.0387 27.6754 13.2498C27.8654 13.0881 28.0925 12.9422 28.3644 12.823C28.4126 12.7872 28.5164 12.7105 28.6558 12.603C28.7066 12.5152 28.7861 12.447 28.8812 12.4096ZM28.3915 24.476C28.2842 23.2948 27.8029 17.7059 28.0486 14.1525C27.8259 14.4228 27.6776 14.7452 27.618 15.0886L27.5833 15.3212V15.322C27.5833 15.3328 27.5901 15.3403 27.5901 15.3495V24.8385C27.824 24.7985 28.1229 24.7002 28.3915 24.476Z" fill="white"/>
<path d="M47.7798 22.1901L43.0232 15.1067C40.9966 12.4827 39.594 11.9525 39.5847 11.9525L34.361 9.28271C34.356 10.9398 34.1398 14.7241 32.3733 16.4678C32.3224 16.518 32.2602 16.5554 32.1918 16.577C32.1233 16.5986 32.0506 16.6038 31.9798 16.592C31.7864 16.557 30.817 16.2836 30.4142 14.0589C30.073 13.6455 29.5867 13.252 29.319 13.222C29.1957 13.3179 29.0935 13.3954 29.0141 13.4529C28.5944 17.1138 29.2979 24.529 29.3063 24.6041C29.3181 24.7291 29.2751 24.8541 29.1906 24.9475C28.5092 25.6735 27.6149 25.756 27.2569 25.756C27.2024 25.7572 27.148 25.7547 27.0939 25.7485C26.9831 25.7379 26.8803 25.687 26.8055 25.6056C26.7307 25.5242 26.6893 25.4183 26.6894 25.3084V15.3492C26.6894 15.3317 26.6996 15.3151 26.7012 15.2967C26.6979 15.2717 26.6877 15.2475 26.6911 15.22L26.7553 14.3456C26.7574 14.3132 26.7631 14.2811 26.7722 14.2498C27.039 13.3662 26.5383 13.1245 26.431 13.082C24.8823 12.5702 23.4527 15.9202 23.4375 15.9536C23.4062 16.0299 23.3539 16.0961 23.2865 16.1447C23.2191 16.1934 23.1394 16.2226 23.0562 16.229C22.973 16.2354 22.8896 16.2188 22.8154 16.181C22.7412 16.1433 22.6792 16.0859 22.6362 16.0152C21.4008 13.9764 21.1584 11.219 21.1221 9.747L16.4643 11.93C16.4085 11.9525 15.0042 12.4802 12.9582 15.1333L8.22011 22.1901C8.1594 22.281 8.13447 22.3907 8.15002 22.4985C8.16558 22.6063 8.22054 22.7047 8.30456 22.7753L14.4461 27.8857C14.5349 27.9581 14.6481 27.9946 14.7631 27.988C14.8781 27.9813 14.9863 27.932 15.0659 27.8499L15.7304 27.1522C15.6543 27.0827 15.6048 26.9893 15.5903 26.888C15.0456 22.7669 15.5692 19.6003 15.592 19.4653C15.6127 19.3498 15.6788 19.2472 15.7759 19.1797C15.873 19.1122 15.9932 19.0853 16.1103 19.1049C16.2274 19.1244 16.3319 19.1889 16.401 19.2842C16.4702 19.3795 16.4984 19.4979 16.4795 19.6136C16.4744 19.6445 15.9551 22.7903 16.4828 26.7729C16.4902 26.8407 16.4812 26.9093 16.4567 26.973C16.5605 29.8579 16.7438 36.6654 16.7438 47.854C16.7438 48.0791 16.9118 48.2691 17.1415 48.2966C17.1896 48.3025 22.0577 48.8726 26.9081 48.8726C27.2366 48.8726 27.5609 48.8693 27.8826 48.8643H28.1106C28.4357 48.8693 28.7633 48.8726 29.0893 48.8726C33.9431 48.8726 38.8129 48.3017 38.8627 48.2966C38.9717 48.2829 39.0719 48.2303 39.1445 48.1488C39.2171 48.0673 39.2571 47.9625 39.257 47.854C39.257 36.5237 39.4496 29.6878 39.5475 26.868C39.5475 26.8463 39.5391 26.8263 39.5424 26.8038C39.5475 26.7671 39.5517 26.7346 39.5551 26.6979C39.5602 26.6004 39.5619 26.4954 39.5652 26.4103L39.5838 26.4295C40.0027 22.5577 39.5517 19.6395 39.5441 19.6086C39.5328 19.4957 39.5657 19.3827 39.6359 19.2928C39.7062 19.2029 39.8086 19.143 39.9222 19.1252C40.0358 19.1074 40.152 19.1332 40.247 19.1971C40.342 19.2611 40.4087 19.3585 40.4333 19.4694C40.4544 19.6011 40.9434 22.7294 40.435 26.9088C40.421 27.0112 40.3722 27.1058 40.2965 27.1772L40.9349 27.849C41.0138 27.9313 41.1214 27.9808 41.2359 27.9874C41.3505 27.9941 41.4633 27.9574 41.5513 27.8849L47.6945 22.7744C47.7789 22.7043 47.8343 22.6061 47.85 22.4983C47.8657 22.3906 47.8408 22.2809 47.7798 22.1901Z" fill="white"/>
</svg>
