<svg width="56" height="56" viewBox="0 0 56 56" fill="none" xmlns="http://www.w3.org/2000/svg">
<path d="M10.2479 42.9092L10.7076 48.8729H25.7648V42.9092H10.2479ZM45.752 42.9092L45.2923 48.8729H27.2549V42.9092H45.752ZM9.67335 35.4547H25.7648V41.4184H10.133L9.67335 35.4547ZM9.55843 33.9637L9.16357 28.8411C11.4177 26.1494 12.9166 22.9069 13.5071 19.4453C14.0976 15.9837 13.7584 12.4271 12.5242 9.13977C14.7979 7.98269 17.2822 7.29825 19.8274 7.12744L27.2112 25.4291C26.2589 27.4309 25.7648 29.6199 25.7648 31.8369V33.9637H9.55843ZM27.2549 33.9637H46.4414L46.8363 28.8411C44.5822 26.1494 43.0833 22.9069 42.4928 19.4453C41.9023 15.9837 42.2415 12.4271 43.4757 9.13977C41.202 7.98269 38.7177 7.29825 36.1725 7.12744L28.2299 26.8141C27.5859 28.4103 27.2549 30.1155 27.2549 31.8369V33.9637ZM45.8669 41.4184L46.3265 35.4547H27.2549V41.4184H45.8669ZM22.7437 10.3728L21.9549 8.41769C23.8373 9.33793 25.9048 9.81628 27.9999 9.81628C30.0951 9.81628 32.1626 9.33793 34.045 8.41769L33.2562 10.3728C29.8626 11.6185 26.1373 11.6185 22.7437 10.3728Z" fill="white"/>
</svg>
