<svg width="56" height="56" viewBox="0 0 56 56" fill="none" xmlns="http://www.w3.org/2000/svg">
<path d="M33.8236 19.5953L32.0939 8H23.1252L21.3955 19.5953C23.1252 18.3141 25.3033 17.6094 27.6096 17.6094C29.9158 17.6094 32.0939 18.3141 33.8236 19.5953ZM21.3955 37.4047L23.1252 49H32.0939L33.8236 37.4047C32.0939 38.6859 29.9158 39.3906 27.6096 39.3906C25.3033 39.3906 23.1252 38.6859 21.3955 37.4047Z" fill="white"/>
<path d="M18 28.4994C18 31.6385 19.5375 34.4572 21.8438 36.1869C23.4453 37.4041 25.4313 38.1088 27.6094 38.1088C29.7875 38.1088 31.7734 37.4041 33.375 36.1869C35.3609 34.7135 36.7703 32.4072 37.1547 29.7807H38.5V29.14C38.5 28.9479 38.5 28.6916 38.5 28.4994C38.5 28.3072 38.5 28.051 38.5 27.8588V27.2182H38.4359C38.4359 26.9619 38.3719 26.7697 38.3078 26.5775H37.0266C36.5141 24.2713 35.2328 22.2213 33.375 20.876C31.7734 19.6588 29.7875 18.9541 27.6094 18.9541C25.4313 18.9541 23.4453 19.6588 21.8438 20.876C19.5375 22.5416 18 25.3604 18 28.4994ZM20.5625 29.14H19.2812V27.8588H20.5625V29.14ZM34.6562 27.8588H35.9375V29.14H34.6562V27.8588ZM26.9688 20.8119V20.1713H28.25V20.8119V21.4525H26.9688V20.8119ZM26.9688 24.015C26.9688 23.6947 27.2891 23.3744 27.6094 23.3744C27.9297 23.3744 28.25 23.6947 28.25 24.015V27.8588H32.0938C32.4141 27.8588 32.7344 28.1791 32.7344 28.4994C32.7344 28.8838 32.4141 29.14 32.0938 29.14H26.9688V24.015ZM26.9688 36.1869V35.5463H28.25V36.1869V36.8275H26.9688V36.1869Z" fill="white"/>
</svg>
