<svg width="24" height="24" viewBox="0 0 24 24" fill="none" xmlns="http://www.w3.org/2000/svg">
<path d="M12 3C10.22 3 8.47991 3.52784 6.99987 4.51677C5.51983 5.50571 4.36628 6.91131 3.68509 8.55585C3.0039 10.2004 2.82567 12.01 3.17294 13.7558C3.5202 15.5016 4.37737 17.1053 5.63604 18.364C6.89472 19.6226 8.49836 20.4798 10.2442 20.8271C11.99 21.1743 13.7996 20.9961 15.4442 20.3149C17.0887 19.6337 18.4943 18.4802 19.4832 17.0001C20.4722 15.5201 21 13.78 21 12C21 9.61305 20.0518 7.32387 18.364 5.63604C16.6761 3.94821 14.387 3 12 3V3ZM12 19.5C10.5166 19.5 9.0666 19.0601 7.83323 18.236C6.59986 17.4119 5.63856 16.2406 5.07091 14.8701C4.50325 13.4997 4.35473 11.9917 4.64411 10.5368C4.9335 9.08197 5.64781 7.74559 6.6967 6.6967C7.7456 5.64781 9.08197 4.9335 10.5368 4.64411C11.9917 4.35472 13.4997 4.50325 14.8701 5.0709C16.2406 5.63856 17.4119 6.59985 18.236 7.83322C19.0601 9.06659 19.5 10.5166 19.5 12C19.5 13.9891 18.7098 15.8968 17.3033 17.3033C15.8968 18.7098 13.9891 19.5 12 19.5Z" fill="white"/>
<path d="M12.0004 10.2755C11.8014 10.2755 11.6107 10.3545 11.47 10.4951C11.3294 10.6358 11.2504 10.8266 11.2504 11.0255V16.1255C11.2504 16.3244 11.3294 16.5151 11.47 16.6558C11.6107 16.7965 11.8014 16.8755 12.0004 16.8755C12.1993 16.8755 12.39 16.7965 12.5307 16.6558C12.6713 16.5151 12.7504 16.3244 12.7504 16.1255V11.0255C12.7504 10.8266 12.6713 10.6358 12.5307 10.4951C12.39 10.3545 12.1993 10.2755 12.0004 10.2755ZM12.0004 7.20047C11.7973 7.2081 11.6049 7.29319 11.4626 7.43824C11.3204 7.5833 11.239 7.77732 11.2354 7.98047V8.10047C11.235 8.19832 11.255 8.29518 11.2941 8.38488C11.3333 8.47457 11.3906 8.55514 11.4626 8.62145C11.5345 8.68777 11.6195 8.73838 11.7121 8.77006C11.8047 8.80174 11.9029 8.8138 12.0004 8.80547V8.80547C12.1969 8.79805 12.3834 8.71664 12.5225 8.57757C12.6615 8.43849 12.7429 8.25201 12.7504 8.05547V7.87547C12.7509 7.78015 12.7313 7.68578 12.6928 7.59858C12.6543 7.51139 12.5978 7.43333 12.5269 7.36957C12.4561 7.3058 12.3725 7.25776 12.2818 7.22861C12.191 7.19947 12.0951 7.18988 12.0004 7.20047V7.20047Z" fill="white"/>
</svg>
