<svg width="32" height="32" viewBox="0 0 32 32" fill="none" xmlns="http://www.w3.org/2000/svg">
<path d="M11.4398 4.08496L29.0898 17.21C28.1048 18.54 28.3798 20.42 29.7098 21.41L24.9348 27.825C23.6048 26.84 21.7248 27.115 20.7398 28.445L3.08484 15.315C4.07484 13.985 3.79484 12.105 2.46484 11.12L7.23984 4.69996C8.56984 5.68996 10.4448 5.40996 11.4398 4.08496Z" fill="#65BC6A"/>
<path d="M31.0995 18.7003C31.3195 18.8653 31.3645 19.1803 31.1995 19.4003L29.7095 21.4103C28.3795 20.4203 28.1045 18.5403 29.0895 17.2103L31.0995 18.7003ZM24.9345 27.8253L23.4445 29.8353C23.2795 30.0553 22.9645 30.1003 22.7445 29.9353L20.7395 28.4453C21.7245 27.1153 23.6045 26.8403 24.9345 27.8253ZM18.7745 12.6503C20.7645 14.1353 21.1795 16.9553 19.6995 18.9503C18.2145 20.9453 15.3945 21.3553 13.4045 19.8753C11.4095 18.3903 10.9945 15.5703 12.4745 13.5803C13.9595 11.5853 16.7795 11.1703 18.7745 12.6503Z" fill="#398F3E"/>
<path d="M13.9998 19.0717C14.0893 19.1382 14.1943 19.1707 14.2978 19.1707C14.4508 19.1707 14.6013 19.1012 14.6993 18.9692L15.1238 18.3982C15.1578 18.4032 15.1898 18.4127 15.2243 18.4152C15.2608 18.4177 15.2973 18.4192 15.3333 18.4192C16.1118 18.4192 16.7713 17.8152 16.8288 17.0272C16.8478 16.7642 16.7973 16.5007 16.6823 16.2642C16.6298 16.1562 16.5643 16.0547 16.4873 15.9622C16.4588 15.9247 16.4253 15.8907 16.3868 15.8622C16.2798 15.7822 16.2098 15.6657 16.1903 15.5337C16.1708 15.4017 16.2038 15.2697 16.2838 15.1627C16.3633 15.0557 16.4803 14.9857 16.6123 14.9662C16.7453 14.9472 16.8763 14.9802 16.9838 15.0602C17.0553 15.1132 17.1093 15.1817 17.1443 15.2622C17.1618 15.3027 17.1738 15.3457 17.1803 15.3887C17.2208 15.6622 17.4758 15.8497 17.7478 15.8107C18.0208 15.7702 18.2098 15.5167 18.1698 15.2432C18.1508 15.1137 18.1148 14.9872 18.0628 14.8667C18.0268 14.7832 17.9743 14.7092 17.9238 14.6342L18.2803 14.1547C18.4453 13.9332 18.3993 13.6202 18.1773 13.4552C17.9563 13.2907 17.6428 13.3362 17.4778 13.5582L17.1253 14.0322C16.9143 13.9667 16.6913 13.9437 16.4673 13.9772C16.0708 14.0357 15.7208 14.2447 15.4818 14.5662C15.0028 15.2107 15.1188 16.1167 15.7338 16.6207C15.7528 16.6462 15.7693 16.6732 15.7833 16.7017C15.8218 16.7812 15.8383 16.8667 15.8318 16.9557C15.8118 17.2307 15.5648 17.4387 15.2973 17.4182C15.1638 17.4087 15.0423 17.3477 14.9553 17.2467C14.8678 17.1457 14.8248 17.0167 14.8348 16.8837C14.8548 16.6082 14.6473 16.3687 14.3723 16.3487C14.0863 16.3302 13.8573 16.5362 13.8373 16.8112C13.8083 17.2107 13.9368 17.5977 14.1993 17.9007C14.2083 17.9112 14.2193 17.9182 14.2283 17.9282L13.8983 18.3722C13.7318 18.5942 13.7778 18.9072 13.9998 19.0717ZM3.08531 15.3152L16.9953 25.6602H16.9903L3.39531 21.3352C3.90031 19.7552 3.02531 18.0702 1.44531 17.5652L2.00031 15.8202L2.33531 14.7602L3.08531 15.3152Z" fill="#65BC6A"/>
<path d="M16.9898 25.6598L12.1048 24.1048L2.0848 16.6548L1.7998 16.4448L1.9998 15.8198L2.3348 14.7598L3.0848 15.3148L16.9898 25.6598Z" fill="#398F3E"/>
<path d="M18.125 26.4996H5C5 24.8446 3.655 23.4996 2 23.4996V20.8896L3.395 21.3346L16.99 25.6596H16.995L18.125 26.4996Z" fill="#65BC6A"/>
<path d="M18.125 26.4996H14.915L3.395 22.8346L2 22.3896V20.8896L3.395 21.3346L16.99 25.6596H16.995L18.125 26.4996Z" fill="#29752B"/>
<path d="M30.0002 23.5V26C30.0002 26.275 29.7752 26.5 29.5002 26.5H27.9902L28.1302 26.055L28.8752 23.72C29.2202 23.575 29.6002 23.5 30.0002 23.5Z" fill="#236823"/>
<path d="M30 21.0146V23.4996C29.6 23.4996 29.22 23.5746 28.875 23.7196L29.535 21.6446V21.6396L29.71 21.4096L30 21.0146Z" fill="#29752B"/>
<path d="M29.5354 21.6445L28.8754 23.7195L28.1304 26.0545C27.7754 25.9395 27.4104 25.8995 27.0554 25.9195C26.7754 25.9345 26.5004 25.9895 26.2354 26.0795L29.5354 21.6445Z" fill="#65BC6A"/>
<path d="M28.1297 26.055L27.9897 26.5L27.3697 28.44C27.2897 28.7 27.0047 28.845 26.7447 28.765L24.7197 28.12L24.9347 27.825L26.2347 26.08C26.4997 25.99 26.7747 25.935 27.0547 25.92C27.4097 25.9 27.7747 25.94 28.1297 26.055ZM29.9997 13V15.11L29.0047 14.79L27.6497 14.36H27.6447C27.2397 13.85 26.9997 13.205 26.9997 12.5H29.4997C29.7747 12.5 29.9997 12.725 29.9997 13Z" fill="#398F3E"/>
<path d="M27.6448 14.36L23.4798 13.035H23.4748L22.7598 12.5H26.9998C26.9998 13.205 27.2398 13.85 27.6448 14.36Z" fill="#65BC6A"/>
<path d="M5.33453 7.25996L4.26953 8.69496V8.68996L4.77953 7.08496L5.33453 7.25996Z" fill="#398F3E"/>
<path d="M5.00008 26.5003H2.50008C2.22508 26.5003 2.00008 26.2753 2.00008 26.0003V23.5003C3.65508 23.5003 5.00008 24.8453 5.00008 26.5003ZM1.44508 17.5653C3.02508 18.0703 3.90008 19.7553 3.39508 21.3353L2.00008 20.8903L1.01008 20.5753C0.750082 20.4953 0.605082 20.2103 0.685082 19.9503L1.44508 17.5653ZM11.4401 4.08034V4.08534C10.4451 5.41034 8.57008 5.69034 7.24008 4.70034L8.73508 2.69534C8.89508 2.47034 9.21008 2.42534 9.43008 2.59034L11.4401 4.08034ZM2.46508 11.1203C3.79508 12.1053 4.07508 13.9853 3.08508 15.3153L1.08008 13.8253C0.855082 13.6603 0.810082 13.3453 0.975082 13.1253L2.46508 11.1203Z" fill="#398F3E"/>
<path d="M28.9905 14.8352C28.7755 15.4202 28.7405 16.3552 28.8755 17.0452L23.4805 13.0352L27.6455 14.3602H27.6505L29.0055 14.7902L28.9905 14.8352Z" fill="#65BC6A"/>
<path d="M28.8754 17.045C28.7404 16.355 28.7754 15.42 28.9904 14.835L29.0054 14.79L30.0004 15.11L30.9904 15.425C31.2504 15.505 31.3954 15.79 31.3154 16.05L30.5904 18.32L29.0904 17.21L28.8754 17.045ZM29.5354 21.645L28.8754 23.72L28.1304 26.055C27.7754 25.94 27.4104 25.9 27.0554 25.92C26.7754 25.935 26.5004 25.99 26.2354 26.08L29.5354 21.645Z" fill="#398F3E"/>
<path d="M27.0547 25.92C26.7747 25.935 26.4997 25.99 26.2347 26.08L25.3697 27.245L24.9347 27.825L24.7197 28.12L26.3347 28.635L26.7447 28.765C27.0047 28.845 27.2897 28.7 27.3697 28.44L27.9897 26.5L28.0397 26.34L28.1297 26.055C27.7747 25.94 27.4097 25.9 27.0547 25.92Z" fill="#29752B"/>
<path d="M28.1704 14.5248L27.6504 14.3598H27.6454C27.5354 14.2248 27.4404 14.0798 27.3604 13.9248L28.1704 14.5248Z" fill="#236823"/>
<path d="M27.6448 14.36L23.4798 13.035H23.4748L22.7598 12.5H25.4448L27.3598 13.925C27.4398 14.08 27.5348 14.225 27.6448 14.36Z" fill="#29752B"/>
<path d="M28.8155 15.6602C28.8405 15.4552 28.8705 15.2552 28.9155 15.0802L28.1705 14.5252L27.6505 14.3602H27.6455L23.4805 13.0352L28.5105 16.7752L28.8755 17.0452C28.7955 16.6302 28.7755 16.1252 28.8155 15.6602Z" fill="#398F3E"/>
<path d="M30.5449 18.2854L30.6449 18.1504L30.5899 18.3204L30.5449 18.2854Z" fill="#398F3E"/>
<path d="M31.0999 16.7001L29.0899 15.2101L28.9149 15.0801C28.8699 15.2551 28.8399 15.4551 28.8149 15.6601C28.7749 16.1251 28.7949 16.6301 28.8749 17.0451L29.0899 17.2101L30.5449 18.2851L30.6449 18.1501L31.1049 16.7051L31.0999 16.7001Z" fill="#29752B"/>
</svg>
