<svg width="40" height="40" viewBox="0 0 40 40" fill="none" xmlns="http://www.w3.org/2000/svg">
<path d="M14.8746 5.5625L15.1871 5.46875L15.3433 5.4375C15.4058 5.4375 15.4371 5.40625 15.4996 5.40625L16.1246 5.25C16.5308 5.15625 16.9683 5.09375 17.3746 5.03125C19.0308 4.8125 20.7496 4.84375 22.3746 5.1875C23.4058 5.40625 24.3746 5.6875 25.3433 6.09375L23.9996 7.90625L32.1871 8.25L29.4058 0.53125L28.0621 2.34375C26.4371 1.65625 24.7496 1.1875 23.0308 0.96875C20.9058 0.6875 18.7496 0.78125 16.6871 1.21875C16.1558 1.3125 15.6558 1.46875 15.1558 1.59375L14.3746 1.8125C14.3121 1.84375 14.2496 1.875 14.2183 1.875L14.0308 1.9375L13.6558 2.0625C12.6871 2.4375 11.7183 2.90625 10.8121 3.4375C9.90583 3.96875 9.06208 4.59375 8.24958 5.25C7.46833 5.9375 6.71833 6.65625 6.03083 7.4375C4.71833 9.0625 3.65583 10.875 2.90583 12.7812C2.53083 13.75 2.24958 14.7187 2.03083 15.7187L1.96833 16.0937L1.93708 16.2812L1.90583 16.4687C1.87458 16.7187 1.84333 16.9687 1.81208 17.2187L1.74958 17.9687C1.74958 18.0937 1.71833 18.2187 1.71833 18.3437L1.68708 18.75C1.62458 20.7812 1.87458 22.8125 2.46833 24.75C3.06208 26.6875 3.96833 28.5 5.12458 30.0937L6.43708 29.1875C5.46833 27.6562 4.74958 25.9687 4.34333 24.2187C3.93708 22.4687 3.81208 20.6562 3.99958 18.9062L4.03083 18.5625C4.03083 18.4375 4.06208 18.3437 4.06208 18.2187L4.15583 17.5625C4.18708 17.3437 4.24958 17.125 4.28083 16.9062L4.31208 16.75L4.34333 16.5937L4.43708 16.2812C4.68708 15.4375 4.96833 14.5937 5.34333 13.8125C5.71833 13.0312 6.15583 12.25 6.65583 11.5312C6.78083 11.3437 6.90583 11.1562 7.03083 11L7.21833 10.75C7.28083 10.6562 7.34333 10.5625 7.40583 10.5L7.81208 10L8.24958 9.53125C8.84333 8.90625 9.49958 8.34375 10.1871 7.84375C10.8746 7.34375 11.5933 6.875 12.3746 6.5C13.2496 6.125 14.0621 5.8125 14.8746 5.5625ZM25.1246 34.4375L24.8121 34.5312L24.6558 34.5625C24.5933 34.5625 24.5621 34.5937 24.4996 34.5937L23.8746 34.75C23.4683 34.8437 23.0308 34.9062 22.6246 34.9687C20.9683 35.1875 19.2496 35.1562 17.6246 34.8125C16.5933 34.5937 15.6246 34.3125 14.6558 33.9062L15.9996 32.0937L7.81208 31.75L10.5621 39.4687L11.9058 37.6562C13.5308 38.3437 15.2183 38.8125 16.9371 39.0312C19.0621 39.3125 21.2183 39.2187 23.2808 38.8125C23.8121 38.7187 24.3121 38.5625 24.8121 38.4375L25.5621 38.1875C25.6246 38.1562 25.6871 38.1562 25.7496 38.125L25.9371 38.0625L26.3121 37.9375C27.2808 37.5625 28.2496 37.0937 29.1558 36.5625C30.0621 36.0312 30.9058 35.4062 31.7183 34.75C32.4996 34.0625 33.2496 33.3437 33.9371 32.5625C35.2808 30.9687 36.3433 29.1875 37.0933 27.2812C37.4683 26.3125 37.7496 25.3437 37.9683 24.3437L38.0308 23.9687L38.0621 23.7812L38.0933 23.5937C38.1246 23.3437 38.1558 23.0937 38.1871 22.8437L38.2496 22.0937C38.2496 21.9687 38.2808 21.8437 38.2808 21.7187L38.3121 21.3437C38.3746 19.3125 38.1246 17.2812 37.5308 15.3437C36.9371 13.4062 36.0308 11.5937 34.8746 10L33.5621 10.9062C34.5308 12.4375 35.2496 14.125 35.6558 15.875C36.0621 17.625 36.1871 19.4375 35.9996 21.1875L35.9683 21.5312C35.9683 21.6562 35.9371 21.75 35.9371 21.875L35.8433 22.5312C35.8121 22.75 35.7496 22.9687 35.7183 23.1875L35.6871 23.3437L35.6558 23.5L35.5621 23.8125C35.3121 24.6562 35.0308 25.5 34.6558 26.2812C34.2808 27.0625 33.8433 27.8437 33.3433 28.5625C33.2183 28.75 33.0933 28.9375 32.9683 29.0937L32.7808 29.3437C32.7183 29.4375 32.6558 29.5312 32.5933 29.5937L32.1871 30.0937L31.7496 30.5625C31.1558 31.1875 30.4996 31.75 29.8121 32.25C29.1246 32.75 28.4058 33.2187 27.6246 33.5937C26.7496 33.875 25.9371 34.1875 25.1246 34.4375Z" fill="white"/>
</svg>
