<svg width="136" height="55" viewBox="0 0 136 55" fill="none" xmlns="http://www.w3.org/2000/svg">
<path fill-rule="evenodd" clip-rule="evenodd" d="M69.8969 5.67565C76.2074 6.75304 82.3593 9.2 90.5826 13.9026C96.9096 17.5209 98.9736 18.4035 102.268 18.8996C109.37 19.9696 115.028 22.5196 119.509 26.6696C124.398 31.1987 126.809 36.3043 124.058 36.3043C122.963 36.3043 121.49 37.3022 121.49 38.0435C121.49 38.7848 122.963 39.7826 124.058 39.7826C125.045 39.7826 125.178 39.9765 125.178 41.417C125.178 42.5809 125.443 43.2083 126.1 43.5948C127.133 44.203 127.305 45.4283 126.469 46.2174C125.967 46.69 115.957 47.0304 115.957 46.5748C115.957 46.4843 116.3 45.653 116.718 44.727C117.861 42.2004 117.777 37.0422 116.553 34.4887C115.18 31.6257 112.154 28.7022 109.11 27.2974C105.411 25.5909 100.686 25.5909 96.9875 27.2974C93.9328 28.7065 90.9057 31.6374 89.5586 34.4887C88.342 37.0648 88.2502 42.2378 89.3774 44.727C89.797 45.653 90.14 46.4843 90.14 46.5748C90.14 46.6652 88.4448 46.7391 86.3725 46.7391H82.6055L77.2673 43.8165C66.7173 38.04 57.9103 30.7183 54.7187 25.0709L53.2107 22.4026L69.2049 22.2883C83.8581 22.1835 85.2416 22.11 85.7077 21.413C86.5638 20.133 85.5477 19.2761 80.0795 16.6657C73.4735 13.5117 68.5973 12.3909 60.0813 12.0683L53.7653 11.8291L54.4831 10.52C54.8777 9.8 56.1405 8.26348 57.2894 7.10565L59.3778 5L62.8875 5.03913C64.8178 5.06043 67.9722 5.34696 69.8969 5.67565ZM38.2749 6.21565C37.0071 6.87565 34.9989 8.04609 33.8122 8.81652L31.6546 10.2174H25.6618C20.8289 10.2174 19.5293 10.3496 18.9447 10.9004C18.5464 11.2765 18.2205 11.7517 18.2205 11.9565C18.2205 12.1613 18.5464 12.6365 18.9447 13.0126C19.4814 13.5183 20.6482 13.7009 23.4397 13.7152L27.2104 13.7352L24.7817 15.8222C21.5204 18.6243 17.8129 20.3457 14.5765 20.5596L11.9966 20.73L10.4983 18.1361C9.06731 15.6583 9 15.3287 9 10.7926C9 7.67869 9.19041 5.86391 9.55323 5.52174C9.96169 5.13652 14.0975 5.00217 25.3432 5.00783L40.58 5.01565L38.2749 6.21565ZM53.7192 5.6813C53.7192 5.81652 53.2241 6.55044 52.6192 7.31174C52.0143 8.07304 51.1015 9.4813 50.5902 10.4417C49.8176 11.8939 49.3141 12.2752 47.5996 12.7078C44.9169 13.3848 41.8792 15.587 40.0038 18.2157C38.2846 20.6252 38.2496 20.7835 39.2297 21.7083C39.794 22.24 41.0438 22.397 44.8772 22.4178L49.8005 22.4439L51.5007 25.7874C54.6237 31.9283 61.8493 38.6461 71.4238 44.3109L75.5279 46.7391H59.783C51.1232 46.7391 44.0377 46.6652 44.0377 46.5748C44.0377 46.4843 44.3803 45.653 44.7989 44.727C45.9413 42.2004 45.8578 37.0422 44.6334 34.4887C43.2609 31.6257 40.2347 28.7022 37.1901 27.2974C33.4918 25.5909 28.7663 25.5909 25.068 27.2974C22.0133 28.7065 18.9862 31.6374 17.6391 34.4887C16.5469 36.8004 16.3353 42.1483 17.2509 44.2996C17.5446 44.99 17.6889 45.6461 17.5713 45.757C17.4538 45.8683 16.2782 45.8187 14.9592 45.6478C13.1649 45.4152 12.1419 44.9743 10.8957 43.8983C9.23881 42.4665 9.23051 42.4417 9.23051 38.8465V35.2339L10.9593 34.1743L12.6882 33.1152V28.6674V24.2196L15.7978 23.7091C19.5049 23.1 23.0686 21.3935 26.7862 18.4461C37.3165 10.0983 40.1933 8.40348 46.9878 6.54652C50.818 5.5 53.7192 5.12696 53.7192 5.6813ZM68.7024 16.0791C70.2238 16.3952 72.8171 17.1487 74.4652 17.7535L77.4619 18.8526L68.1262 18.8826L58.7904 18.913V17.1739V15.4348L62.3634 15.4691C64.3282 15.4883 67.1811 15.7626 68.7024 16.0791ZM55.1023 17.1739V18.913L49.2242 18.8974L43.3462 18.8817L44.7292 17.7735C46.8776 16.0517 48.8199 15.4348 52.0909 15.4348H55.1023V17.1739ZM108.047 30.4643C112.216 32.453 114.371 36.1309 114.023 40.6648C113.767 44.0039 111.892 46.9017 108.835 48.6843C106.838 49.8487 106.173 50 103.049 50C99.9243 50 99.2595 49.8487 97.2619 48.6843C95.8631 47.8687 94.4745 46.5591 93.6096 45.24C92.375 43.3561 92.2146 42.7291 92.2146 39.7826C92.2146 36.8361 92.375 36.2091 93.6096 34.3252C96.6436 29.6978 102.92 28.0191 108.047 30.4643ZM36.1275 30.4643C40.2965 32.453 42.4513 36.1309 42.1033 40.6648C41.8474 44.0039 39.9729 46.9017 36.9158 48.6843C34.9182 49.8487 34.2534 50 31.1291 50C28.0047 50 27.3399 49.8487 25.3423 48.6843C23.9436 47.8687 22.555 46.5591 21.6901 45.24C20.4555 43.3561 20.2951 42.7291 20.2951 39.7826C20.2951 36.8361 20.4555 36.2091 21.6901 34.3252C24.7241 29.6978 31.0009 28.0191 36.1275 30.4643ZM99.8215 35.8052C99.1875 36.2426 98.3761 37.3817 98.0179 38.3365C97.4274 39.9122 97.4486 40.2304 98.2484 41.7757C99.4798 44.1543 101.997 45.3048 104.452 44.6109C107.762 43.6756 109.282 40.5548 107.811 37.7157C106.269 34.7396 102.628 33.8691 99.8215 35.8052ZM27.9019 35.8052C27.268 36.2426 26.4566 37.3817 26.0984 38.3365C25.5078 39.9122 25.529 40.2304 26.3289 41.7757C27.5603 44.1543 30.077 45.3048 32.5324 44.6109C35.8421 43.6756 37.3626 40.5548 35.8914 37.7157C34.3498 34.7396 30.7082 33.8691 27.9019 35.8052ZM104.413 38.6748C105.638 40.0665 103.839 42.2043 102.242 41.2556C100.646 40.3074 101.214 38.0435 103.049 38.0435C103.493 38.0435 104.108 38.3274 104.413 38.6748ZM32.4937 38.6748C33.7187 40.0665 31.9197 42.2043 30.3223 41.2556C28.7262 40.3074 29.2947 38.0435 31.1291 38.0435C31.574 38.0435 32.1881 38.3274 32.4937 38.6748Z" fill="url(#paint0_radial_173_97)"/>
<defs>
<radialGradient id="paint0_radial_173_97" cx="0" cy="0" r="1" gradientUnits="userSpaceOnUse" gradientTransform="translate(68 27.5) rotate(47.4366) scale(66.5282 97.6233)">
<stop stop-color="white"/>
<stop offset="1" stop-color="white" stop-opacity="0"/>
</radialGradient>
</defs>
</svg>
