<svg width="16" height="16" viewBox="0 0 16 16" fill="none" xmlns="http://www.w3.org/2000/svg">
<path d="M9.05673 7.99936L13.7783 3.28477C13.9194 3.14363 13.9987 2.95221 13.9987 2.7526C13.9987 2.553 13.9194 2.36157 13.7783 2.22043C13.6372 2.07929 13.4458 2 13.2462 2C13.0466 2 12.8552 2.07929 12.7141 2.22043L8 6.94251L3.28592 2.22043C3.14479 2.07929 2.95338 2 2.7538 2C2.55422 2 2.36281 2.07929 2.22169 2.22043C2.08056 2.36157 2.00128 2.553 2.00128 2.7526C2.00128 2.95221 2.08056 3.14363 2.22169 3.28477L6.94327 7.99936L2.22169 12.7139C2.15144 12.7836 2.09569 12.8665 2.05764 12.9579C2.01959 13.0492 2 13.1472 2 13.2461C2 13.3451 2.01959 13.443 2.05764 13.5344C2.09569 13.6257 2.15144 13.7086 2.22169 13.7783C2.29136 13.8485 2.37425 13.9043 2.46558 13.9424C2.55691 13.9804 2.65487 14 2.7538 14C2.85274 14 2.9507 13.9804 3.04203 13.9424C3.13335 13.9043 3.21625 13.8485 3.28592 13.7783L8 9.05621L12.7141 13.7783C12.7838 13.8485 12.8666 13.9043 12.958 13.9424C13.0493 13.9804 13.1473 14 13.2462 14C13.3451 14 13.4431 13.9804 13.5344 13.9424C13.6257 13.9043 13.7086 13.8485 13.7783 13.7783C13.8486 13.7086 13.9043 13.6257 13.9424 13.5344C13.9804 13.443 14 13.3451 14 13.2461C14 13.1472 13.9804 13.0492 13.9424 12.9579C13.9043 12.8665 13.8486 12.7836 13.7783 12.7139L9.05673 7.99936Z" fill="white"/>
</svg>
