<svg width="40" height="40" viewBox="0 0 40 40" fill="none" xmlns="http://www.w3.org/2000/svg">
<path d="M23.3779 15.0161L16.7704 17.2182C16.3908 17.3448 16.0931 17.6425 15.967 18.0212L13.7645 24.6292C13.6123 25.0856 13.731 25.5892 14.0713 25.9291C14.3131 26.1714 14.6377 26.3012 14.9693 26.3012C15.1037 26.3012 15.2393 26.2797 15.3708 26.2359L21.9783 24.0338C22.3579 23.9073 22.6556 23.6096 22.7817 23.2308L24.9842 16.6229C25.1364 16.1664 25.0177 15.6628 24.6774 15.3229C24.3372 14.9822 23.834 14.8648 23.3779 15.0161ZM20.5726 21.8251L16.9775 23.0233L18.1761 19.427L21.7712 18.2288L20.5726 21.8251Z" fill="white"/>
<path d="M19.375 7.5C12.1377 7.5 6.25 13.3877 6.25 20.625C6.25 27.8623 12.1377 33.75 19.375 33.75C26.6123 33.75 32.5 27.8623 32.5 20.625C32.5 13.3877 26.6123 7.5 19.375 7.5ZM19.375 31.2097C13.5385 31.2097 8.79032 26.4615 8.79032 20.625C8.79032 14.7885 13.5385 10.0403 19.375 10.0403C25.2115 10.0403 29.9597 14.7885 29.9597 20.625C29.9597 26.4615 25.2115 31.2097 19.375 31.2097Z" fill="white"/>
</svg>
