<svg width="40" height="40" viewBox="0 0 40 40" fill="none" xmlns="http://www.w3.org/2000/svg">
<path d="M5 8C5 7.20435 5.31607 6.44129 5.87868 5.87868C6.44129 5.31607 7.20435 5 8 5H15.5C16.2956 5 17.0587 5.31607 17.6213 5.87868C18.1839 6.44129 18.5 7.20435 18.5 8V15.5C18.5 16.2956 18.1839 17.0587 17.6213 17.6213C17.0587 18.1839 16.2956 18.5 15.5 18.5H8C7.20435 18.5 6.44129 18.1839 5.87868 17.6213C5.31607 17.0587 5 16.2956 5 15.5V8ZM5 24.5C5 23.7044 5.31607 22.9413 5.87868 22.3787C6.44129 21.8161 7.20435 21.5 8 21.5H15.5C16.2956 21.5 17.0587 21.8161 17.6213 22.3787C18.1839 22.9413 18.5 23.7044 18.5 24.5V32C18.5 32.7956 18.1839 33.5587 17.6213 34.1213C17.0587 34.6839 16.2956 35 15.5 35H8C7.20435 35 6.44129 34.6839 5.87868 34.1213C5.31607 33.5587 5 32.7956 5 32V24.5ZM24.5 5C23.7044 5 22.9413 5.31607 22.3787 5.87868C21.8161 6.44129 21.5 7.20435 21.5 8V15.5C21.5 16.2956 21.8161 17.0587 22.3787 17.6213C22.9413 18.1839 23.7044 18.5 24.5 18.5H32C32.7956 18.5 33.5587 18.1839 34.1213 17.6213C34.6839 17.0587 35 16.2956 35 15.5V8C35 7.20435 34.6839 6.44129 34.1213 5.87868C33.5587 5.31607 32.7956 5 32 5H24.5ZM21.5 24.5C21.5 23.7044 21.8161 22.9413 22.3787 22.3787C22.9413 21.8161 23.7044 21.5 24.5 21.5H32C32.7956 21.5 33.5587 21.8161 34.1213 22.3787C34.6839 22.9413 35 23.7044 35 24.5V32C35 32.7956 34.6839 33.5587 34.1213 34.1213C33.5587 34.6839 32.7956 35 32 35H24.5C23.7044 35 22.9413 34.6839 22.3787 34.1213C21.8161 33.5587 21.5 32.7956 21.5 32V24.5Z" fill="white"/>
</svg>
