<svg width="24" height="24" viewBox="0 0 24 24" fill="none" xmlns="http://www.w3.org/2000/svg">
<path d="M20.2499 15H19.4999V13.3575C19.4999 12.6295 19.2107 11.9313 18.6959 11.4165C18.1812 10.9017 17.483 10.6125 16.7549 10.6125H7.24494C6.51692 10.6125 5.81872 10.9017 5.30393 11.4165C4.78914 11.9313 4.49994 12.6295 4.49994 13.3575V15H3.74994C3.35211 15 2.97058 15.158 2.68928 15.4393C2.40797 15.7206 2.24994 16.1022 2.24994 16.5V19.5C2.24994 19.8978 2.40797 20.2794 2.68928 20.5607C2.97058 20.842 3.35211 21 3.74994 21H4.49994C4.49994 21.1989 4.57896 21.3897 4.71961 21.5303C4.86026 21.671 5.05103 21.75 5.24994 21.75H18.7499C18.9489 21.75 19.1396 21.671 19.2803 21.5303C19.4209 21.3897 19.4999 21.1989 19.4999 21H20.2499C20.6478 21 21.0293 20.842 21.3106 20.5607C21.5919 20.2794 21.7499 19.8978 21.7499 19.5V16.5C21.7499 16.1022 21.5919 15.7206 21.3106 15.4393C21.0293 15.158 20.6478 15 20.2499 15ZM3.74994 19.5V16.5H4.49994V19.5H3.74994ZM15.7499 14.25H8.24994C8.05103 14.25 7.86026 14.171 7.71961 14.0303C7.57896 13.8897 7.49994 13.6989 7.49994 13.5C7.49994 13.3011 7.57896 13.1103 7.71961 12.9697C7.86026 12.829 8.05103 12.75 8.24994 12.75H15.7499C15.9489 12.75 16.1396 12.829 16.2803 12.9697C16.4209 13.1103 16.4999 13.3011 16.4999 13.5C16.4999 13.6989 16.4209 13.8897 16.2803 14.0303C16.1396 14.171 15.9489 14.25 15.7499 14.25ZM20.2499 19.5H19.4999V16.5H20.2499V19.5ZM16.7549 9.1125C17.7614 9.11208 18.7348 9.47115 19.4999 10.125V9.6C19.498 8.24801 18.96 6.95195 18.004 5.99595C17.048 5.03994 15.7519 4.50198 14.3999 4.5H14.2499C14.2499 3.90326 14.0129 3.33097 13.5909 2.90901C13.169 2.48705 12.5967 2.25 11.9999 2.25C11.4032 2.25 10.8309 2.48705 10.4089 2.90901C9.98699 3.33097 9.74994 3.90326 9.74994 4.5H9.59994C8.24794 4.50198 6.95189 5.03994 5.99589 5.99595C5.03988 6.95195 4.50192 8.24801 4.49994 9.6V10.125C5.26504 9.47115 6.23851 9.11208 7.24494 9.1125H16.7549ZM11.9999 3.75C12.1989 3.75 12.3896 3.82902 12.5303 3.96967C12.6709 4.11032 12.7499 4.30109 12.7499 4.5H11.2499C11.2499 4.30109 11.329 4.11032 11.4696 3.96967C11.6103 3.82902 11.801 3.75 11.9999 3.75Z" fill="white"/>
</svg>
