<svg width="40" height="40" viewBox="0 0 40 40" fill="none" xmlns="http://www.w3.org/2000/svg">
<path d="M28.75 1.25C23.2363 1.25 18.75 5.73625 18.75 11.25C18.75 14.8825 20.6463 18.1313 23.75 19.9075V21.25C23.75 21.5812 23.8812 21.9 24.1162 22.1338L27.2288 25.2463L26.3812 26.94C26.205 27.2925 26.205 27.7063 26.3812 28.0588L27.3525 30L26.3825 31.9412C26.295 32.1137 26.25 32.3062 26.25 32.5V35C26.25 35.3312 26.3812 35.65 26.6162 35.8838L29.1162 38.3838C29.36 38.6275 29.68 38.75 30 38.75C30.32 38.75 30.64 38.6275 30.8838 38.3838L33.3838 35.8838C33.6188 35.65 33.75 35.3312 33.75 35V19.9075C36.8538 18.1313 38.75 14.8825 38.75 11.25C38.75 5.73625 34.2638 1.25 28.75 1.25ZM28.7937 11.875C27.4163 11.9 26.275 10.7975 26.25 9.41875C26.2263 8.04125 27.3288 6.9 28.7063 6.875C30.0837 6.85 31.225 7.9525 31.25 9.33125C31.2738 10.7087 30.1712 11.85 28.7937 11.875Z" fill="white"/>
<path d="M22.5 21.2493C22.5 21.5492 22.55 21.8617 22.6625 22.1367C22.3375 22.2242 22 22.2992 21.6625 22.3617C21.5375 22.4117 21.3875 22.4368 21.25 22.4368C20.4125 22.5368 19.225 22.5117 18.2125 22.2992L7.1375 33.3867C6.9 33.6117 6.5875 33.7493 6.25 33.7493H2.5C1.8125 33.7493 1.25 33.1868 1.25 32.4993V28.7493C1.25 28.4118 1.3875 28.0993 1.6125 27.8618L2.8625 26.6118C3.1 26.3868 3.4125 26.2493 3.75 26.2493H5.35L6.3125 23.3493C6.4375 22.9867 6.7375 22.6867 7.1 22.5617L9.7625 21.6742L8.7875 17.7992C8.675 17.3742 8.8 16.9242 9.1125 16.6117L10.55 15.1867C9.5875 11.7367 10.55 7.98675 13.1 5.42425C14.525 3.99925 16.325 3.04925 18.3 2.67425C18.4 2.63675 18.5 2.61175 18.575 2.59925C19.5625 2.44925 20.5625 2.46175 21.5375 2.62425C19.075 4.68675 17.5 7.78675 17.5 11.2493C17.5 15.0868 19.35 18.5243 22.5 20.5992V21.2493Z" fill="white"/>
</svg>
