<svg width="40" height="40" viewBox="0 0 40 40" fill="none" xmlns="http://www.w3.org/2000/svg">
<g clip-path="url(#clip0_821_589)">
<path d="M20.0004 17.5C23.5254 17.5 26.2504 13.4625 26.2504 10C26.2504 8.3424 25.5919 6.75269 24.4198 5.58058C23.2477 4.40848 21.658 3.75 20.0004 3.75C18.3428 3.75 16.7531 4.40848 15.581 5.58058C14.4089 6.75269 13.7504 8.3424 13.7504 10C13.7504 13.4625 16.4754 17.5 20.0004 17.5ZM20.0004 6.25C20.995 6.25 21.9488 6.64509 22.652 7.34835C23.3553 8.05161 23.7504 9.00544 23.7504 10C23.7504 12.1875 21.9254 15 20.0004 15C18.0754 15 16.2504 12.1875 16.2504 10C16.2504 9.00544 16.6455 8.05161 17.3487 7.34835C18.052 6.64509 19.0058 6.25 20.0004 6.25ZM28.9004 22.6375C27.7375 21.4583 26.3519 20.522 24.824 19.8829C23.2961 19.2438 21.6565 18.9147 20.0004 18.9147C18.3443 18.9147 16.7046 19.2438 15.1768 19.8829C13.6489 20.522 12.2633 21.4583 11.1004 22.6375C10.3476 23.2765 9.73148 24.0609 9.28901 24.9437C8.84655 25.8265 8.58682 26.7895 8.52539 27.775C8.58847 28.7584 8.84898 29.719 9.29139 30.5995C9.7338 31.48 10.349 32.2624 11.1004 32.9C12.2589 34.0868 13.6432 35.0299 15.1716 35.6739C16.7 36.3178 18.3418 36.6495 20.0004 36.6495C21.6589 36.6495 23.3007 36.3178 24.8292 35.6739C26.3576 35.0299 27.7418 34.0868 28.9004 32.9C29.6517 32.2624 30.267 31.48 30.7094 30.5995C31.1518 29.719 31.4123 28.7584 31.4754 27.775C31.414 26.7895 31.1542 25.8265 30.7118 24.9437C30.2693 24.0609 29.6532 23.2765 28.9004 22.6375ZM27.1379 31.1125C26.207 32.0611 25.0963 32.8147 23.8708 33.3291C22.6453 33.8435 21.3295 34.1085 20.0004 34.1085C18.6713 34.1085 17.3555 33.8435 16.13 33.3291C14.9045 32.8147 13.7938 32.0611 12.8629 31.1125C11.8339 30.2861 11.1734 29.0864 11.0254 27.775C11.1703 26.4591 11.8311 25.2544 12.8629 24.425C13.7938 23.4764 14.9045 22.7228 16.13 22.2084C17.3555 21.694 18.6713 21.429 20.0004 21.429C21.3295 21.429 22.6453 21.694 23.8708 22.2084C25.0963 22.7228 26.207 23.4764 27.1379 24.425C28.1697 25.2544 28.8305 26.4591 28.9754 27.775C28.8274 29.0864 28.1668 30.2861 27.1379 31.1125Z" fill="white"/>
</g>
<defs>
<clipPath id="clip0_821_589">
<rect width="40" height="40" fill="white"/>
</clipPath>
</defs>
</svg>
