<svg width="48" height="48" viewBox="0 0 48 48" fill="none" xmlns="http://www.w3.org/2000/svg">
<path d="M12 38.9995C11.451 38.9995 10.905 38.8495 10.422 38.5525C9.98753 38.2829 9.62895 37.907 9.38014 37.4603C9.13133 37.0135 9.00049 36.5108 9 35.9995V11.9995C9 10.9585 9.54 9.99246 10.422 9.44646C10.8574 9.17875 11.3538 9.02617 11.8644 9.00308C12.3751 8.97999 12.8832 9.08714 13.341 9.31446L37.341 21.3145C37.8393 21.5641 38.2583 21.9474 38.5512 22.4216C38.844 22.8958 38.9991 23.4421 38.9991 23.9995C38.9991 24.5568 38.844 25.1031 38.5512 25.5773C38.2583 26.0515 37.8393 26.4349 37.341 26.6845L13.341 38.6845C12.921 38.8945 12.456 38.9995 12 38.9995Z" fill="white"/>
</svg>
