<svg width="40" height="40" viewBox="0 0 40 40" fill="none" xmlns="http://www.w3.org/2000/svg">
<path d="M26.5303 12.7507C26.9197 12.7507 27.3004 12.8662 27.6242 13.0825C27.948 13.2989 28.2004 13.6064 28.3494 13.9662C28.4984 14.326 28.5374 14.7219 28.4615 15.1039C28.3855 15.4858 28.198 15.8366 27.9226 16.112C27.6472 16.3874 27.2964 16.5749 26.9144 16.6509C26.5325 16.7269 26.1366 16.6879 25.7768 16.5388C25.417 16.3898 25.1095 16.1374 24.8931 15.8136C24.6768 15.4898 24.5613 15.1092 24.5613 14.7197C24.5613 14.1975 24.7687 13.6967 25.138 13.3274C25.5072 12.9582 26.0081 12.7507 26.5303 12.7507ZM8.65169 18.9334L19.6913 7.8807C19.8139 7.75904 19.9594 7.66278 20.1193 7.59746C20.2792 7.53214 20.4505 7.49902 20.6233 7.50002H32.4373C32.7854 7.50002 33.1193 7.63832 33.3655 7.88449C33.6117 8.13067 33.75 8.46455 33.75 8.81269V20.6267C33.751 20.7995 33.7179 20.9708 33.6525 21.1307C33.5872 21.2906 33.491 21.4361 33.3693 21.5587L22.3166 32.5983C21.5782 33.3358 20.5773 33.75 19.5337 33.75C18.4902 33.75 17.4893 33.3358 16.7509 32.5983L8.65169 24.5648C7.91422 23.8264 7.5 22.8255 7.5 21.7819C7.5 20.7383 7.91422 19.7374 8.65169 18.999V18.9334ZM10.5026 22.6351L18.6149 30.7343C18.8608 30.9788 19.1935 31.116 19.5403 31.116C19.8871 31.116 20.2198 30.9788 20.4657 30.7343L31.1246 20.0885V10.1254H21.1615L10.5026 20.7843C10.3809 20.9069 10.2846 21.0524 10.2193 21.2123C10.154 21.3723 10.1209 21.5435 10.1219 21.7163C10.1233 22.0606 10.26 22.3906 10.5026 22.6351Z" fill="white"/>
</svg>
