<svg width="40" height="40" viewBox="0 0 40 40" fill="none" xmlns="http://www.w3.org/2000/svg">
<path d="M33.6725 23.7497H35.625C36.4538 23.7497 37.265 24.0622 37.8512 24.6484C38.4388 25.2347 38.75 26.0459 38.75 26.8747C38.754 27.04 38.8209 27.1976 38.937 27.3153C39.0531 27.4331 39.2098 27.5021 39.375 27.5084C39.5402 27.5021 39.6969 27.4331 39.813 27.3153C39.9291 27.1976 39.996 27.04 40 26.8747C40 25.7147 39.5312 24.6097 38.7113 23.7884C38.3068 23.3813 37.826 23.058 37.2964 22.8368C36.7668 22.6157 36.1989 22.5011 35.625 22.4997H33.6712L33.6725 23.7497ZM5.625 8.24219L19.4925 11.9522L28.75 14.4522L29.375 18.7497C29.1987 18.7497 29.0462 18.7684 28.8675 18.7884L26.1712 14.0622C26.115 13.9673 26.0351 13.8886 25.9394 13.8338C25.8436 13.7791 25.7353 13.7501 25.625 13.7497H4.14L5.625 8.24219ZM1.25 14.9997H25.235L29.8825 23.1247L28.2425 26.0159C27.9459 25.9036 27.6688 25.7454 27.4212 25.5472C27.1785 25.3456 26.9677 25.1083 26.7962 24.8434C27.2439 24.3829 27.4961 23.767 27.5 23.1247C27.4985 22.7127 27.3941 22.3075 27.1963 21.946C26.9985 21.5846 26.7137 21.2782 26.3675 21.0547C26.3314 21.0241 26.292 20.9977 26.25 20.9759C25.8716 20.7507 25.4403 20.6295 25 20.6247C23.6287 20.6247 22.5 21.7534 22.5 23.1247C22.5 24.4959 23.6287 25.6247 25 25.6247C25.2575 25.6247 25.5087 25.5809 25.7425 25.5072C25.9875 25.8797 26.28 26.2322 26.64 26.5234C26.9388 26.7622 27.24 26.9584 27.5775 27.1084L25.235 31.2497H1.25V23.1247V14.9997ZM5.625 19.0622C4.41375 19.0622 3.78875 19.7872 3.78875 21.0547C3.78875 23.3172 6.21125 23.6434 6.21125 25.2734C6.21125 25.8384 5.9825 26.0147 5.58625 26.0147C5.19 26.0147 4.92125 25.8397 4.92125 25.2734V24.6872H3.75V25.1947C3.75 26.4622 4.4025 27.1872 5.625 27.1872C6.8475 27.1872 7.46125 26.4622 7.46125 25.1947C7.46125 22.9322 5.03875 22.6059 5.03875 20.9759C5.03875 20.4109 5.2675 20.1947 5.66375 20.1947C6.06 20.1947 6.28875 20.4109 6.28875 20.9759V21.3284H7.46125V21.0534C7.46125 19.7872 6.83625 19.0622 5.625 19.0622ZM9.10125 19.1797L7.85125 27.0697H8.985L9.18 25.6634H10.7025L10.9375 27.0697H12.1875L10.9375 19.1797H9.10125ZM12.7738 19.1797V27.0697H16.055V25.9372H14.0238V19.1797H12.7738ZM16.6012 19.1797V27.0697H20V25.9372H17.8512V23.6322H19.57V22.4997H17.8512V20.3122H20V19.1797H16.6012ZM30.8587 20.3909C31.455 20.7159 31.9412 21.2134 32.2262 21.8747C32.5036 22.5193 32.5581 23.238 32.3813 23.9171C32.2045 24.5963 31.8065 25.1971 31.25 25.6247C30.7437 26.0109 30.1712 26.2122 29.57 26.2497C31.4775 23.3372 31.3013 23.4822 30.86 20.3897L30.8587 20.3909ZM9.96125 20.5859L10.5463 24.5697H9.3375L9.96125 20.5859ZM25 21.8747C25.0713 21.8747 25.1275 21.9022 25.195 21.9134C24.9785 22.637 24.9518 23.4041 25.1175 24.1409C25.1325 24.2072 25.1375 24.2697 25.1562 24.3359C25.1 24.3434 25.0575 24.3747 25 24.3747C24.305 24.3747 23.75 23.8197 23.75 23.1247C23.75 22.4297 24.305 21.8747 25 21.8747Z" fill="white"/>
</svg>
