<svg width="16" height="16" viewBox="0 0 16 16" fill="none" xmlns="http://www.w3.org/2000/svg">
<path d="M11.255 5.95908C11.2906 5.9125 11.3176 5.86004 11.335 5.80408C11.5006 5.27972 11.5403 4.72371 11.451 4.18112C11.3616 3.63853 11.1456 3.12464 10.8206 2.6811C10.4955 2.23756 10.0705 1.87685 9.58005 1.62821C9.08957 1.37957 8.54741 1.25 7.99751 1.25C7.44761 1.25 6.90545 1.37957 6.41497 1.62821C5.9245 1.87685 5.49951 2.23756 5.17445 2.6811C4.8494 3.12464 4.63343 3.63853 4.54405 4.18112C4.45467 4.72371 4.4944 5.27972 4.66001 5.80408C4.67945 5.85863 4.70821 5.90938 4.74501 5.95408C3.96831 6.61843 3.41385 7.50484 3.15633 8.49393C2.8988 9.48302 2.95058 10.5273 3.30468 11.486C3.65879 12.4448 4.29821 13.272 5.13682 13.8563C5.97543 14.4405 6.97294 14.7538 7.99501 14.7538C9.01708 14.7538 10.0146 14.4405 10.8532 13.8563C11.6918 13.272 12.3312 12.4448 12.6853 11.486C13.0394 10.5273 13.0912 9.48302 12.8337 8.49393C12.5762 7.50484 12.0217 6.61843 11.245 5.95408L11.255 5.95908ZM5.58501 5.36908C5.48588 4.99871 5.47327 4.6105 5.54815 4.23448C5.62303 3.85845 5.7834 3.50469 6.01685 3.20054C6.25029 2.8964 6.55057 2.65002 6.89445 2.48047C7.23833 2.31092 7.6166 2.22273 8.00001 2.22273C8.38342 2.22273 8.76169 2.31092 9.10557 2.48047C9.44945 2.65002 9.74973 2.8964 9.98318 3.20054C10.2166 3.50469 10.377 3.85845 10.4519 4.23448C10.5267 4.6105 10.5141 4.99871 10.415 5.36908C9.67546 4.96114 8.84462 4.74719 8.00001 4.74719C7.15541 4.74719 6.32456 4.96114 5.58501 5.36908Z" fill="white"/>
</svg>
